<svg xmlns="http://www.w3.org/2000/svg" xmlns:xlink="http://www.w3.org/1999/xlink" viewBox="0 0 720 316"><defs><style>.a{fill:url(#a);}.an,.b{fill:none;stroke-miterlimit:10;}.b{stroke-width:4px;stroke:url(#b);}.c{fill:#fbbc04;}.d{fill:url(#c);}.e{fill:url(#d);}.f{fill:url(#e);}.g{fill:url(#f);}.h{fill:url(#g);}.i{fill:url(#h);}.j{fill:url(#i);}.k{fill:url(#j);}.l{fill:url(#k);}.m{fill:url(#l);}.n{fill:url(#m);}.o{fill:url(#n);}.p{fill:url(#o);}.q{fill:url(#p);}.r{fill:url(#q);}.s{fill:url(#r);}.t{fill:url(#s);}.u{fill:url(#t);}.v{fill:url(#u);}.w{fill:url(#v);}.x{fill:url(#w);}.az,.y{opacity:0.2;}.z{fill:#202124;}.aa{fill:url(#x);}.ab{fill:url(#y);}.ac{fill:url(#z);}.ad{fill:url(#aa);}.ae{fill:url(#ab);}.af{fill:url(#ac);}.ag{fill:url(#ad);}.ah{fill:url(#ae);}.ai{fill:url(#af);}.aj{fill:url(#ag);}.ak{fill:url(#ah);}.al{fill:url(#ai);}.am{fill:url(#aj);}.an{stroke:#dadce0;stroke-width:3px;}.ao{fill:#bdc1c6;}.ap{fill:#dadce0;}.aq{fill:#e37400;}.ar,.as{opacity:0.3;}.ar{fill:url(#ak);}.as{fill:url(#al);}.at{fill:url(#am);}.au{fill:#3c4043;}.av{fill:#5f6368;}.aw{fill:url(#an);}.ax{fill:url(#ao);}.ay{fill:#9aa0a6;}.az{fill:url(#ap);}.ba{fill:url(#aq);}.bb{fill:#e8eaed;}.bc{fill:#fff;}.bd{fill:#80868b;}.be{fill:#e94235;}.bf{fill:#4285f4;}.bg{fill:url(#ar);}.bh{fill:url(#as);}.bi{fill:#d93025;}</style><linearGradient id="a" x1="360.1" y1="135.06" x2="360.1" y2="321.99" gradientUnits="userSpaceOnUse"><stop offset="0" stop-color="#f1f3f4"/><stop offset="0.33" stop-color="#f7f8f9"/><stop offset="1" stop-color="#fff"/></linearGradient><linearGradient id="b" x1="140.45" y1="183.42" x2="190.7" y2="183.42" gradientUnits="userSpaceOnUse"><stop offset="0" stop-color="#4285f4"/><stop offset="1" stop-color="#1967d2"/></linearGradient><linearGradient id="c" x1="104.52" y1="295.04" x2="104.52" y2="299.46" xlink:href="#b"/><linearGradient id="d" x1="104.52" y1="290.01" x2="104.52" y2="294.43" xlink:href="#b"/><linearGradient id="e" x1="104.52" y1="284.99" x2="104.52" y2="289.41" xlink:href="#b"/><linearGradient id="f" x1="104.52" y1="279.96" x2="104.52" y2="284.38" xlink:href="#b"/><linearGradient id="g" x1="104.52" y1="274.94" x2="104.52" y2="279.36" xlink:href="#b"/><linearGradient id="h" x1="104.52" y1="269.91" x2="104.52" y2="274.33" xlink:href="#b"/><linearGradient id="i" x1="104.52" y1="264.89" x2="104.52" y2="269.31" xlink:href="#b"/><linearGradient id="j" x1="104.52" y1="259.86" x2="104.52" y2="264.28" xlink:href="#b"/><linearGradient id="k" x1="104.52" y1="254.84" x2="104.52" y2="259.25" xlink:href="#b"/><linearGradient id="l" x1="104.52" y1="249.81" x2="104.52" y2="254.23" xlink:href="#b"/><linearGradient id="m" x1="104.52" y1="244.79" x2="104.52" y2="249.2" xlink:href="#b"/><linearGradient id="n" x1="104.52" y1="239.76" x2="104.52" y2="244.18" xlink:href="#b"/><linearGradient id="o" x1="104.52" y1="234.74" x2="104.52" y2="239.15" xlink:href="#b"/><linearGradient id="p" x1="104.52" y1="229.71" x2="104.52" y2="234.13" xlink:href="#b"/><linearGradient id="q" x1="104.52" y1="224.69" x2="104.52" y2="229.1" xlink:href="#b"/><linearGradient id="r" x1="104.52" y1="219.66" x2="104.52" y2="224.08" xlink:href="#b"/><linearGradient id="s" x1="104.52" y1="214.64" x2="104.52" y2="219.05" xlink:href="#b"/><linearGradient id="t" x1="104.52" y1="209.61" x2="104.52" y2="214.03" xlink:href="#b"/><linearGradient id="u" x1="104.52" y1="204.59" x2="104.52" y2="209" xlink:href="#b"/><linearGradient id="v" x1="104.52" y1="199.56" x2="104.52" y2="203.98" xlink:href="#b"/><linearGradient id="w" x1="104.52" y1="194.54" x2="104.52" y2="198.95" xlink:href="#b"/><linearGradient id="x" x1="102.29" y1="211.87" x2="102.29" y2="216.29" gradientTransform="matrix(1.08, 0, 0, 1, -5.57, 2.73)" xlink:href="#b"/><linearGradient id="y" x1="102.99" y1="216.85" x2="102.99" y2="221.27" gradientTransform="matrix(1.08, 0, 0, 1, -6.32, 2.78)" xlink:href="#b"/><linearGradient id="z" x1="103.68" y1="221.83" x2="103.68" y2="226.25" gradientTransform="matrix(1.08, 0, 0, 1, -7.07, 2.84)" xlink:href="#b"/><linearGradient id="aa" x1="104.38" y1="226.81" x2="104.38" y2="231.22" gradientTransform="matrix(1.08, 0, 0, 1, -7.81, 2.9)" xlink:href="#b"/><linearGradient id="ab" x1="105.07" y1="231.79" x2="105.07" y2="236.2" gradientTransform="matrix(1.08, 0, 0, 1, -8.56, 2.95)" xlink:href="#b"/><linearGradient id="ac" x1="105.76" y1="236.76" x2="105.76" y2="241.18" gradientTransform="matrix(1.08, 0, 0, 1, -9.31, 3.01)" xlink:href="#b"/><linearGradient id="ad" x1="106.46" y1="241.74" x2="106.46" y2="246.16" gradientTransform="matrix(1.08, 0, 0, 1, -10.05, 3.06)" xlink:href="#b"/><linearGradient id="ae" x1="107.15" y1="246.72" x2="107.15" y2="251.14" gradientTransform="matrix(1.08, 0, 0, 1, -10.8, 3.12)" xlink:href="#b"/><linearGradient id="af" x1="107.85" y1="251.7" x2="107.85" y2="256.12" gradientTransform="matrix(1.08, 0, 0, 1, -11.54, 3.17)" xlink:href="#b"/><linearGradient id="ag" x1="108.54" y1="256.68" x2="108.54" y2="261.1" gradientTransform="matrix(1.08, 0, 0, 1, -12.29, 3.23)" xlink:href="#b"/><linearGradient id="ah" x1="109.23" y1="261.66" x2="109.23" y2="266.07" gradientTransform="matrix(1.08, 0, 0, 1, -13.04, 3.28)" xlink:href="#b"/><linearGradient id="ai" x1="109.93" y1="266.64" x2="109.93" y2="271.05" gradientTransform="matrix(1.08, 0, 0, 1, -13.78, 3.34)" xlink:href="#b"/><linearGradient id="aj" x1="110.62" y1="271.61" x2="110.62" y2="276.03" gradientTransform="matrix(1.08, 0, 0, 1, -14.53, 3.4)" xlink:href="#b"/><linearGradient id="ak" x1="561.49" y1="302.1" x2="697.75" y2="302.1" gradientUnits="userSpaceOnUse"><stop offset="0" stop-color="#202124" stop-opacity="0"/><stop offset="0.44" stop-color="#202124"/><stop offset="1" stop-color="#202124" stop-opacity="0"/></linearGradient><linearGradient id="al" y1="302.1" x2="99.35" y2="302.1" gradientUnits="userSpaceOnUse"><stop offset="0" stop-color="#202124" stop-opacity="0"/><stop offset="1" stop-color="#202124"/></linearGradient><linearGradient id="am" x1="554.32" y1="176.02" x2="578.6" y2="176.02" gradientUnits="userSpaceOnUse"><stop offset="0" stop-color="#bdc1c6"/><stop offset="0.72" stop-color="#e8eaed"/></linearGradient><linearGradient id="an" x1="404.36" y1="301.76" x2="404.36" y2="286.51" xlink:href="#am"/><linearGradient id="ao" x1="255.03" y1="304.58" x2="255.03" y2="284.81" gradientUnits="userSpaceOnUse"><stop offset="0" stop-color="#9aa0a6"/><stop offset="1" stop-color="#bdc1c6"/></linearGradient><linearGradient id="ap" x1="568.52" y1="179.06" x2="568.52" y2="235.57" gradientUnits="userSpaceOnUse"><stop offset="0" stop-color="#202124"/><stop offset="1" stop-color="#202124" stop-opacity="0"/></linearGradient><linearGradient id="aq" x1="656.54" y1="270.48" x2="662.48" y2="290.98" gradientUnits="userSpaceOnUse"><stop offset="0" stop-color="#f1f3f4"/><stop offset="1" stop-color="#dadce0"/></linearGradient><linearGradient id="ar" x1="-1515.15" y1="369.08" x2="-1508.51" y2="369.08" gradientTransform="matrix(-0.97, -0.26, -0.26, 0.97, -1172.2, -508.16)" gradientUnits="userSpaceOnUse"><stop offset="0" stop-color="#bdc1c6"/><stop offset="1" stop-color="#e8eaed"/></linearGradient><linearGradient id="as" x1="-1511.98" y1="321.52" x2="-1511.98" y2="326.6" gradientTransform="matrix(-0.97, -0.26, -0.26, 0.97, -1172.2, -508.16)" gradientUnits="userSpaceOnUse"><stop offset="0" stop-color="#d93025"/><stop offset="1" stop-color="#e94235"/></linearGradient></defs><title>d_v4geo</title><path class="a" d="M175.57,48.63H151.88l-13.1,13.1L124.29,47.25H91.05L68.78,69.52H36.43a9.22,9.22,0,1,0,.25,3.21H70.11L92.38,50.46H123L136.5,64,123.29,77.22H101.13V100L132,130.86h63L282.44,43.4h.23a9.27,9.27,0,1,0-3.91-.88l-85.11,85.12H133.28L104.35,98.71V80.43h18.94L143.84,101h33.67a9.24,9.24,0,1,0,16.37-6l63.75-63.75h-38l-48,48H156.31L141.05,64l12.16-12.16H176.9l9.64-9.64a9.24,9.24,0,1,0-4.39-10.31h-103L62,49.1H29.1V42.6a9.24,9.24,0,1,0-3.21,0v9.72H63.31l17.2-17.2h101.4a9.16,9.16,0,0,0,2.15,5ZM155,82.48h18l48-48h28.92L191.43,92.9a9.12,9.12,0,0,0-4.69-1.29,9.23,9.23,0,0,0-8.7,6.16H145.17L126.23,78.83l12.55-12.55Zm362.81-41.9a9.37,9.37,0,1,1,2.64,1.9L503,59.94V122a9.23,9.23,0,0,1,7.6,8.56h73.68a9.2,9.2,0,0,1,12.46-4.64L620,102.61V35.26H601.89a9.23,9.23,0,0,1-7.55,8v59.05l-13.09,13.1H519.64V71.26L557.93,33h17.54V66.22a9.19,9.19,0,1,1-3.22-.26V36.18h-13l-7.12,7.12V80.11a9.24,9.24,0,1,1-3.21,0V46.52L522.85,72.59v39.6h57.07L591.13,101V43.27A9.23,9.23,0,1,1,601.7,32.05h21.54v71.89l-23.89,23.89a9.24,9.24,0,1,1-15.87,6.42c0-.16,0-.31,0-.47H510.2A9.23,9.23,0,1,1,499.76,122V58.61ZM313.46,128,359,82.45V29.63l22,22V188.93a9.23,9.23,0,0,1,6.31,14.35L415,230.94a9.3,9.3,0,1,1-2.51,2l-27.41-27.41A9.23,9.23,0,1,1,377.82,189V53L362.26,37.39V83.78L350.75,95.29v27l10.94,11V195.9l-23.76,23.76a9.14,9.14,0,0,1,1.87,5.55,9.24,9.24,0,1,1-4.21-7.75l22.89-22.89v-60l-10.94-11V98.5l-18,18H330V134l9.54,9.54v43.31L312.33,214a9.25,9.25,0,1,1-2.28-2.28l26.23-26.22V144.89l-9.53-9.54V119.29l-11.54,11.53a9.23,9.23,0,0,1-5.23,12V154.4l10.85,10.85v14.18l-11.18,11.18a9.29,9.29,0,1,1-1.81-2.74l9.77-9.77V166.58l-10.84-10.85V143.48h-.13a9.11,9.11,0,0,1-3.43-.67l-43.83,43.84v9.78a9.23,9.23,0,0,1,5.82,16.4l6.44,6.44a9.24,9.24,0,1,1-2.16,2.39l-7.22-7.22a9.44,9.44,0,0,1-2.88.46A9.23,9.23,0,0,1,256.16,197V185.33l44.26-44.26a9.23,9.23,0,1,1,13-13ZM507.59,269.68a9.24,9.24,0,0,1-18.33,1.61H409.17l-20.73-20.73h-122l-42.21-42.21v-23H211.41a9.22,9.22,0,1,1-.35-3.21h14.12L336.89,70.46V43.09a9.24,9.24,0,1,1,3.22.28V71.79L227.45,184.45V207l40.32,40.32h122l20.74,20.74h78.75a9.24,9.24,0,0,1,18.33,1.6ZM702,264.31a9.24,9.24,0,1,1-16.17-6.08l-33.1-33.11a9.24,9.24,0,0,1-15.7-7.59h-176l-34.59-34.59a9.23,9.23,0,1,1-7.13-16.48V35.78H401V185.94l44.53,44.53a9.22,9.22,0,0,1,12.38,6.14H634.78l32.12,32.12H555.74c0,.31,0,.63,0,.95a9.28,9.28,0,1,1-1-4.16H659.14l-25.69-25.7H458.15a9.24,9.24,0,1,1-15.44-7.58l-45-45V32.57h24.69V166.46a9.22,9.22,0,0,1,6.12,14.14l33.72,33.72H638a9.23,9.23,0,0,1,16.57,8.12L688.3,256.2a9.13,9.13,0,0,1,4.42-1.13A9.24,9.24,0,0,1,702,264.31Zm0-27.25a9.24,9.24,0,1,1-16.07-6.2L669,214V32.05h25.3V195.38a9.24,9.24,0,1,1-3.21,0V35.26H672.23v177.4l16.21,16.21A9.23,9.23,0,0,1,702,237.06ZM430.47,34.17a9.24,9.24,0,1,1,10.85,9.09V163.64L465,187.27a9.13,9.13,0,0,1,4.67-1.28,9.24,9.24,0,0,1,9.09,7.63H651.78V35.78h-9.64v79.59L603.3,154.2h-105a9.23,9.23,0,1,1-16-6.55l-4.39-4.4V52l16.72-16.72H468.89L462.15,42v104.5a9.21,9.21,0,0,1,7,12.42l14,14h137a9.24,9.24,0,1,1,0,3.21H481.82l-14.4-14.4a9.23,9.23,0,1,1-8.49-15.24V40.68l8.63-8.63h34.82L481.11,53.31v88.61l3.75,3.75a9.09,9.09,0,0,1,4.25-1,9.24,9.24,0,0,1,8.78,6.37H602L638.92,114V32.57H655V196.84H478.71a9.24,9.24,0,1,1-16.22-7.48L438.11,165V43.26A9.23,9.23,0,0,1,430.47,34.17ZM253.21,264.31a9.24,9.24,0,1,1-17.49-4.12l-95.09-95.08h74.71L318,62.43V35.78H299v17l-85.49,85.49a9.23,9.23,0,1,1-14.94,10.53H122.38l-53.6-53.6H29.1v20H66.34L214.26,263.18H191.69a10.55,10.55,0,0,1,.07,1.13,9.24,9.24,0,1,1-14.75-7.4l-23.58-23.57a9.18,9.18,0,0,1-10,3.35l-8.74,8.75,20.08,20.08H91.49V253.85a9.22,9.22,0,1,1,3.22.18v8.27h52.35l-16.87-16.86,10.26-10.27a9.24,9.24,0,1,1,14.48-4.88l25.13,25.13a9.1,9.1,0,0,1,2.47-.35,9.25,9.25,0,0,1,8.15,4.9H206.5L65,118.48H25.89V92H70.11l53.6,53.6h73.93c0-.33,0-.65,0-1a9.22,9.22,0,0,1,13.34-8.26l84.89-84.89V32.57h25.41V63.76L216.67,168.32H148.39l89.26,89.27a9.22,9.22,0,0,1,15.56,6.72ZM29.1,187.85v67.37a9.24,9.24,0,1,1-3.21,0V187.85a9.24,9.24,0,1,1,3.21,0Zm49.53,32.81a9.23,9.23,0,0,1-9,9.22v35.64H49.39V212.27a9.28,9.28,0,1,1,3.22.41V262.3H66.44V229.41a9.24,9.24,0,1,1,12.19-8.75ZM104,194a9.23,9.23,0,0,1,.47-2.9L50.33,137H29.1v14.46H45.57l64.93,64.94a9.26,9.26,0,1,1-3,1.57L44.24,154.67H25.89V133.78H51.66l54.42,54.42A9.23,9.23,0,1,1,104,194Z"/><path class="b" d="M140.45,135.17a48.25,48.25,0,0,1,0,96.5"/><rect class="c" x="39.04" y="189.68" width="130.96" height="5.03"/><rect class="c" x="39.04" y="300.07" width="130.96" height="5.03"/><rect class="d" x="49.2" y="295.05" width="110.64" height="5.03" rx="2.51" ry="2.51"/><rect class="e" x="49.2" y="290.02" width="110.64" height="5.03" rx="2.51" ry="2.51"/><rect class="f" x="49.2" y="285" width="110.64" height="5.03" rx="2.51" ry="2.51"/><rect class="g" x="49.2" y="279.97" width="110.64" height="5.03" rx="2.51" ry="2.51"/><rect class="h" x="49.2" y="274.95" width="110.64" height="5.03" rx="2.51" ry="2.51"/><rect class="i" x="49.2" y="269.92" width="110.64" height="5.03" rx="2.51" ry="2.51"/><rect class="j" x="49.2" y="264.9" width="110.64" height="5.03" rx="2.51" ry="2.51"/><rect class="k" x="49.2" y="259.87" width="110.64" height="5.03" rx="2.51" ry="2.51"/><rect class="l" x="49.2" y="254.85" width="110.64" height="5.03" rx="2.51" ry="2.51"/><rect class="m" x="49.2" y="249.82" width="110.64" height="5.03" rx="2.51" ry="2.51"/><rect class="n" x="49.2" y="244.8" width="110.64" height="5.03" rx="2.51" ry="2.51"/><rect class="o" x="49.2" y="239.77" width="110.64" height="5.03" rx="2.51" ry="2.51"/><rect class="p" x="49.2" y="234.75" width="110.64" height="5.03" rx="2.51" ry="2.51"/><rect class="q" x="49.2" y="229.72" width="110.64" height="5.03" rx="2.51" ry="2.51"/><rect class="r" x="49.2" y="224.7" width="110.64" height="5.03" rx="2.51" ry="2.51"/><rect class="s" x="49.2" y="219.67" width="110.64" height="5.03" rx="2.51" ry="2.51"/><rect class="t" x="49.2" y="214.65" width="110.64" height="5.03" rx="2.51" ry="2.51"/><rect class="u" x="49.2" y="209.62" width="110.64" height="5.03" rx="2.51" ry="2.51"/><rect class="v" x="49.2" y="204.6" width="110.64" height="5.03" rx="2.51" ry="2.51"/><rect class="w" x="49.2" y="199.57" width="110.64" height="5.03" rx="2.51" ry="2.51"/><rect class="x" x="49.2" y="194.55" width="110.64" height="5.03" rx="2.51" ry="2.51"/><g class="y"><path class="z" d="M49.2,272.43A2.51,2.51,0,0,0,51.71,275a2.48,2.48,0,0,0-1.91.9l110,16.49a2.51,2.51,0,0,0-2.5-2.32,2.51,2.51,0,0,0,2.52-2.51,1.9,1.9,0,0,0,0-.25l-110-16.49A2.49,2.49,0,0,0,49.2,272.43Z"/><path class="z" d="M49.4,206.12l110-5.39a2.51,2.51,0,0,0-2.12-1.16,2.51,2.51,0,1,0,0-5H51.71a2.51,2.51,0,0,0,0,5,2.52,2.52,0,0,0,0,5A2.51,2.51,0,0,0,49.4,206.12Z"/></g><rect class="aa" x="44.97" y="214.59" width="119.11" height="5.02" rx="2.51" ry="2.51" transform="translate(33.34 -13.1) rotate(8.53)"/><rect class="ab" x="44.97" y="219.63" width="119.11" height="5.02" rx="2.51" ry="2.51" transform="translate(34.09 -13.04) rotate(8.53)"/><rect class="ac" x="44.97" y="224.66" width="119.11" height="5.02" rx="2.51" ry="2.51" transform="translate(34.84 -12.99) rotate(8.53)"/><rect class="ad" x="44.97" y="229.7" width="119.11" height="5.02" rx="2.51" ry="2.51" transform="translate(35.58 -12.93) rotate(8.53)"/><rect class="ae" x="44.97" y="234.73" width="119.11" height="5.02" rx="2.51" ry="2.51" transform="translate(36.33 -12.87) rotate(8.53)"/><rect class="af" x="44.97" y="239.76" width="119.11" height="5.02" rx="2.51" ry="2.51" transform="translate(37.07 -12.82) rotate(8.53)"/><rect class="ag" x="44.97" y="244.8" width="119.11" height="5.02" rx="2.51" ry="2.51" transform="translate(37.82 -12.76) rotate(8.53)"/><rect class="ah" x="44.97" y="249.83" width="119.11" height="5.02" rx="2.51" ry="2.51" transform="translate(38.57 -12.71) rotate(8.53)"/><rect class="ai" x="44.97" y="254.86" width="119.11" height="5.02" rx="2.51" ry="2.51" transform="translate(39.31 -12.65) rotate(8.53)"/><rect class="aj" x="44.97" y="259.9" width="119.11" height="5.02" rx="2.51" ry="2.51" transform="translate(40.06 -12.6) rotate(8.53)"/><rect class="ak" x="44.97" y="264.93" width="119.11" height="5.02" rx="2.51" ry="2.51" transform="translate(40.81 -12.54) rotate(8.53)"/><rect class="al" x="44.97" y="269.97" width="119.11" height="5.02" rx="2.51" ry="2.51" transform="translate(41.55 -12.48) rotate(8.53)"/><rect class="am" x="44.97" y="275" width="119.11" height="5.02" rx="2.51" ry="2.51" transform="translate(42.3 -12.43) rotate(8.53)"/><polyline class="an" points="121.28 131.21 121.28 127.21 138.28 125.36"/><rect class="ao" x="113.28" y="129.71" width="16" height="10.25"/><rect class="ap" x="129.28" y="129.71" width="16" height="10.25"/><circle class="aq" cx="115.9" cy="133.57" r="0.87"/><circle class="aq" cx="118.55" cy="133.57" r="0.87"/><circle class="aq" cx="121.21" cy="133.57" r="0.87"/><circle class="aq" cx="123.87" cy="133.57" r="0.87"/><circle class="aq" cx="126.52" cy="133.57" r="0.87"/><rect class="ar" x="561.49" y="299.1" width="136.26" height="6"/><rect class="as" y="299.1" width="99.35" height="6"/><path class="at" d="M249.26,66.46H559.47A13.55,13.55,0,0,1,573,80V285.58a0,0,0,0,1,0,0H235.71a0,0,0,0,1,0,0V80A13.55,13.55,0,0,1,249.26,66.46Z"/><path class="au" d="M249.26,66.46H550.48A13.55,13.55,0,0,1,564,80V285.58a0,0,0,0,1,0,0H235.71a0,0,0,0,1,0,0V80A13.55,13.55,0,0,1,249.26,66.46Z"/><rect class="av" x="246.14" y="76.95" width="307.45" height="201.67"/><path class="aw" d="M235.71,285.58H573a0,0,0,0,1,0,0V296a9.12,9.12,0,0,1-9.12,9.12H244.83a9.12,9.12,0,0,1-9.12-9.12V285.58a0,0,0,0,1,0,0Z"/><path class="ax" d="M86.37,285.58H423.68a0,0,0,0,1,0,0V296a9.12,9.12,0,0,1-9.12,9.12H95.5A9.12,9.12,0,0,1,86.37,296V285.58a0,0,0,0,1,0,0Z"/><path class="ay" d="M219.74,285.58h70.57a0,0,0,0,1,0,0v2a4.37,4.37,0,0,1-4.37,4.37H224.12a4.37,4.37,0,0,1-4.37-4.37v-2a0,0,0,0,1,0,0Z"/><rect class="az" x="564.03" y="165.6" width="8.99" height="73.71"/><path class="ba" d="M635.47,132.67a12.59,12.59,0,0,1,12.61,8L696.9,267.32a12.6,12.6,0,0,1-7.22,16.29l-53.52,20.64a12.58,12.58,0,0,1-4.94.84h-6l4.34-172.45Z"/><rect class="bb" x="547.7" y="177.59" width="160.9" height="82.57" rx="12.6" ry="12.6" transform="translate(606.37 -445.96) rotate(68.91)"/><rect class="bc" x="563.35" y="183.15" width="129.6" height="71.43" transform="translate(606.37 -445.96) rotate(68.91)"/><rect class="ao" x="614.14" y="235.36" width="4.94" height="4.94" transform="translate(-44.26 242.88) rotate(-21.53)"/><rect class="ao" x="646.1" y="222.75" width="4.94" height="4.94" transform="translate(-37.4 253.73) rotate(-21.53)"/><rect class="ao" x="616.92" y="228.95" width="4.94" height="4.94" transform="translate(-41.71 243.46) rotate(-21.53)"/><rect class="ao" x="639.92" y="219.88" width="4.94" height="4.94" transform="translate(-36.78 251.26) rotate(-21.53)"/><rect class="ao" x="620.4" y="224.3" width="4.94" height="4.94" transform="translate(-39.76 244.41) rotate(-21.53)"/><rect class="ao" x="625" y="222.49" width="4.94" height="4.94" transform="translate(-38.78 245.97) rotate(-21.53)"/><rect class="ao" x="629.6" y="220.67" width="4.94" height="4.94" transform="translate(-37.79 247.53) rotate(-21.53)"/><rect class="ao" x="634.2" y="218.86" width="4.94" height="4.94" transform="translate(-36.8 249.09) rotate(-21.53)"/><rect class="ao" x="602.99" y="206.17" width="14.83" height="4.94" transform="translate(175.92 685.45) rotate(-66.53)"/><rect class="ao" x="602.99" y="206.17" width="14.83" height="4.94" transform="translate(133.59 -225.85) rotate(23.47)"/><rect class="ao" x="625.99" y="197.09" width="14.83" height="4.94" transform="translate(198.08 701.09) rotate(-66.53)"/><rect class="ao" x="625.99" y="197.09" width="14.83" height="4.94" transform="translate(131.88 -235.76) rotate(23.47)"/><rect class="bd" x="651.41" y="276.01" width="5.77" height="21.36" rx="2.88" ry="2.88" transform="matrix(0.36, 0.93, -0.93, 0.36, 686.39, -426.94)"/><rect class="ap" x="277.11" y="95.85" width="67.55" height="6.58"/><rect class="ap" x="277.11" y="174.49" width="44.96" height="6.58"/><rect class="ap" x="277.11" y="187.6" width="64.56" height="6.58"/><rect class="ap" x="350.17" y="187.6" width="88.97" height="6.58"/><rect class="ap" x="299.58" y="122.06" width="61.64" height="6.58"/><rect class="ap" x="318.46" y="240.03" width="50.83" height="6.58"/><rect class="ap" x="380.96" y="240.03" width="58.42" height="6.58"/><rect class="be" x="449.07" y="240.03" width="34.06" height="6.58"/><rect class="bf" x="492.76" y="240.03" width="34.06" height="6.58"/><rect class="ap" x="318.46" y="226.92" width="43.98" height="6.58"/><rect class="ap" x="369.3" y="226.92" width="43.98" height="6.58"/><rect class="be" x="421.7" y="226.92" width="97.49" height="6.58"/><rect class="ap" x="318.46" y="213.82" width="70.09" height="6.58"/><rect class="c" x="457.71" y="213.82" width="27.54" height="6.58"/><rect class="bf" x="398.73" y="213.82" width="52.48" height="6.58"/><rect class="ap" x="318.46" y="148.44" width="56.38" height="6.58"/><rect class="ap" x="474.28" y="148.44" width="21.95" height="6.58"/><rect class="be" x="386.54" y="148.11" width="79.37" height="6.58"/><rect class="bf" x="504.86" y="148.11" width="28.97" height="6.58"/><rect class="ap" x="318.46" y="135.17" width="78.43" height="6.58"/><rect class="be" x="403.66" y="135.17" width="45.12" height="6.58"/><rect class="bf" x="455.72" y="135.17" width="38.33" height="6.58"/><rect class="ap" x="299.58" y="200.71" width="57.05" height="6.58"/><rect class="ap" x="364.55" y="200.71" width="84.25" height="6.58"/><rect class="ap" x="454.11" y="200.71" width="24.18" height="6.58"/><rect class="ap" x="429.02" y="253.14" width="60.7" height="6.58" transform="translate(918.75 512.86) rotate(-180)"/><rect class="ap" x="330.96" y="253.14" width="89.64" height="6.58" transform="translate(751.55 512.86) rotate(-180)"/><rect class="ap" x="299.58" y="253.14" width="25.72" height="6.58" transform="translate(624.88 512.86) rotate(-180)"/><rect class="ap" x="299.58" y="161.39" width="84.19" height="6.58"/><rect class="ap" x="393.07" y="161.39" width="53.8" height="6.58"/><rect class="ap" x="277.11" y="108.96" width="84.11" height="6.58"/><rect class="be" x="368.12" y="108.96" width="84.11" height="6.58"/><rect class="bd" x="265.9" y="95.85" width="6.58" height="6.58"/><rect class="bd" x="265.9" y="108.96" width="6.58" height="6.58"/><rect class="bd" x="265.9" y="122.06" width="6.58" height="6.58"/><rect class="bd" x="265.9" y="135.17" width="6.58" height="6.58"/><rect class="bd" x="265.9" y="148.28" width="6.58" height="6.58"/><rect class="bd" x="265.9" y="161.39" width="6.58" height="6.58"/><rect class="bd" x="265.9" y="174.49" width="6.58" height="6.58"/><rect class="bd" x="265.9" y="187.6" width="6.58" height="6.58"/><rect class="bd" x="265.9" y="200.71" width="6.58" height="6.58"/><rect class="bd" x="265.9" y="213.82" width="6.58" height="6.58"/><rect class="bd" x="265.9" y="226.92" width="6.58" height="6.58"/><rect class="bd" x="265.9" y="240.03" width="6.58" height="6.58"/><rect class="bd" x="265.9" y="253.14" width="6.58" height="6.58"/><polygon class="bg" points="201.11 192.85 178.1 278.73 179.3 285.13 181.66 285.77 185.89 280.81 208.91 194.94 201.11 192.85"/><polygon class="ao" points="180.48 285.45 181.08 279.49 182.94 279.99 180.48 285.45"/><polygon class="bh" points="193.25 194.7 200.63 188.69 211.4 191.57 214.79 200.47 213.69 204.57 192.15 198.8 193.25 194.7"/><rect class="be" x="200.69" y="119.76" width="27.61" height="77.47" rx="9.55" ry="9.55" transform="translate(380.66 367.1) rotate(-165)"/><rect class="bi" x="210.92" y="126.02" width="7.14" height="64.94" rx="3.44" ry="3.44" transform="translate(380.66 367.1) rotate(-165)"/><rect class="bi" x="201.04" y="123.38" width="7.14" height="64.94" rx="3.44" ry="3.44" transform="matrix(-0.97, -0.26, 0.26, -0.97, 361.91, 359.34)"/><rect class="bi" x="220.81" y="128.67" width="7.14" height="64.94" rx="3.44" ry="3.44" transform="translate(399.4 374.86) rotate(-165)"/></svg>