<svg xmlns="http://www.w3.org/2000/svg" xmlns:xlink="http://www.w3.org/1999/xlink" viewBox="0 0 720 316"><defs><style>.a,.b,.c,.d,.s{fill:none;stroke-miterlimit:10;}.a,.b,.c,.d{stroke-width:6px;}.a{stroke:url(#a);}.b{stroke:url(#b);}.c{stroke:url(#c);}.d{stroke:url(#d);}.e{fill:#e94235;}.f{fill:#a50e0e;}.g{fill:url(#e);}.h{fill:#34a853;}.i{fill:#4285f4;}.j{fill:#174ea6;}.k{fill:url(#f);}.l,.m,.n{opacity:0.4;}.l{fill:url(#g);}.m{fill:url(#h);}.n{fill:url(#i);}.o{fill:url(#j);}.p{fill:#202124;}.q{fill:url(#k);}.r{fill:url(#l);}.s{stroke:#dadce0;}.t{opacity:0.2;fill:url(#m);}.u{fill:url(#n);}.v{fill:#fbbc04;}.w{fill:#f9ab00;}.x{fill:url(#o);}.y{fill:#e37400;}.z{fill:#5f6368;}.aa{fill:#3c4043;}.ab{fill:url(#p);}.ac{fill:url(#q);}.ad{fill:url(#r);}.ae{fill:url(#s);}.af{fill:url(#t);}.ag{fill:#fcc934;}.ah{fill:url(#u);}.ai{fill:url(#v);}.aj{fill:url(#w);}.ak{fill:url(#x);}.al{fill:url(#y);}.am{fill:url(#z);}.an{fill:url(#aa);}.ao{fill:url(#ab);}.ap{fill:url(#ac);}.aq{opacity:0.52;}.ar{fill:url(#ad);}.as{fill:url(#ae);}.at{fill:url(#af);}.au{opacity:0.5;fill:url(#ag);}</style><linearGradient id="a" x1="31.67" y1="49.94" x2="684.66" y2="49.94" gradientUnits="userSpaceOnUse"><stop offset="0" stop-color="#fff"/><stop offset="0.1" stop-color="#f1f3f4"/><stop offset="0.9" stop-color="#f1f3f4"/><stop offset="1" stop-color="#fff"/></linearGradient><linearGradient id="b" x1="31.67" y1="120.79" x2="684.66" y2="120.79" xlink:href="#a"/><linearGradient id="c" x1="31.67" y1="191.64" x2="684.66" y2="191.64" xlink:href="#a"/><linearGradient id="d" x1="31.67" y1="262.49" x2="684.66" y2="262.49" xlink:href="#a"/><linearGradient id="e" x1="136.24" y1="144.47" x2="136.24" y2="6.23" gradientUnits="userSpaceOnUse"><stop offset="0" stop-color="#f2f2f2" stop-opacity="0"/><stop offset="1" stop-color="#dadce0"/></linearGradient><linearGradient id="f" x1="598.99" y1="232.71" x2="598.99" y2="75.24" xlink:href="#e"/><linearGradient id="g" x1="469.98" y1="308.12" x2="613.72" y2="308.12" gradientUnits="userSpaceOnUse"><stop offset="0" stop-color="#202124" stop-opacity="0"/><stop offset="0.67" stop-color="#202124"/><stop offset="1" stop-color="#202124" stop-opacity="0"/></linearGradient><linearGradient id="h" x1="121.24" y1="308.12" x2="264.98" y2="308.12" gradientUnits="userSpaceOnUse"><stop offset="0" stop-color="#202124" stop-opacity="0"/><stop offset="0.67" stop-color="#202124"/></linearGradient><linearGradient id="i" x1="247.01" y1="308.12" x2="390.75" y2="308.12" xlink:href="#g"/><linearGradient id="j" x1="245.21" y1="204.9" x2="256.9" y2="204.9" gradientUnits="userSpaceOnUse"><stop offset="0" stop-color="#3c4043"/><stop offset="1" stop-color="#5f6368"/></linearGradient><linearGradient id="k" x1="168.94" y1="97.76" x2="333.17" y2="97.76" xlink:href="#j"/><linearGradient id="l" x1="197.87" y1="74.52" x2="301.75" y2="74.52" gradientUnits="userSpaceOnUse"><stop offset="0" stop-color="#f1f3f4"/><stop offset="1" stop-color="#f8f9fa"/></linearGradient><linearGradient id="m" x1="251.06" y1="134.94" x2="251.06" y2="121.12" gradientUnits="userSpaceOnUse"><stop offset="0" stop-color="#202124"/><stop offset="1" stop-color="#202124" stop-opacity="0"/></linearGradient><linearGradient id="n" x1="251.06" y1="311.47" x2="251.06" y2="304.46" xlink:href="#j"/><linearGradient id="o" x1="302.2" y1="219.35" x2="406.11" y2="219.35" gradientTransform="matrix(0.99, 0.1, -0.1, 0.99, 18.92, -36.79)" gradientUnits="userSpaceOnUse"><stop offset="0" stop-color="#e37400"/><stop offset="1" stop-color="#f29900"/></linearGradient><linearGradient id="p" x1="523.67" y1="208.06" x2="564.07" y2="208.06" gradientTransform="translate(293.34 -297.9) rotate(45)" gradientUnits="userSpaceOnUse"><stop offset="0" stop-color="#f29900"/><stop offset="0.27" stop-color="#f9ab00"/><stop offset="0.82" stop-color="#f9ab00"/><stop offset="1" stop-color="#f29900"/></linearGradient><linearGradient id="q" x1="421.2" y1="182.17" x2="423.56" y2="182.17" gradientTransform="translate(40.87 -52.73)" gradientUnits="userSpaceOnUse"><stop offset="0" stop-color="#f29900"/><stop offset="1" stop-color="#f9ab00"/></linearGradient><linearGradient id="r" x1="422.18" y1="177.43" x2="422.18" y2="175.35" gradientTransform="translate(44.81 -51.1)" gradientUnits="userSpaceOnUse"><stop offset="0" stop-color="#f9ab00"/><stop offset="1" stop-color="#fbbc04"/></linearGradient><linearGradient id="s" x1="416.1" y1="220.96" x2="428.27" y2="220.96" gradientTransform="translate(13.44 -64.09)" xlink:href="#r"/><linearGradient id="t" x1="417.96" y1="252.88" x2="428.07" y2="252.88" gradientTransform="translate(-9.13 -73.44)" xlink:href="#r"/><linearGradient id="u" x1="435.66" y1="182.17" x2="438.02" y2="182.17" gradientTransform="translate(36.64 -42.5)" xlink:href="#q"/><linearGradient id="v" x1="436.65" y1="177.43" x2="436.65" y2="175.35" gradientTransform="translate(40.58 -40.87)" xlink:href="#r"/><linearGradient id="w" x1="430.56" y1="220.96" x2="442.73" y2="220.96" gradientTransform="translate(9.21 -53.86)" xlink:href="#r"/><linearGradient id="x" x1="432.42" y1="252.88" x2="442.53" y2="252.88" gradientTransform="translate(-13.36 -63.21)" xlink:href="#r"/><linearGradient id="y" x1="449.98" y1="182.17" x2="452.34" y2="182.17" gradientTransform="translate(32.44 -32.37)" xlink:href="#q"/><linearGradient id="z" x1="450.97" y1="177.43" x2="450.97" y2="175.35" gradientTransform="translate(36.38 -30.74)" xlink:href="#r"/><linearGradient id="aa" x1="444.88" y1="220.96" x2="457.06" y2="220.96" gradientTransform="translate(5.01 -43.74)" xlink:href="#r"/><linearGradient id="ab" x1="446.75" y1="252.88" x2="456.85" y2="252.88" gradientTransform="translate(-17.56 -53.09)" xlink:href="#r"/><linearGradient id="ac" x1="366.09" y1="182.67" x2="366.09" y2="201.56" gradientTransform="translate(293.34 -297.9) rotate(45)" xlink:href="#r"/><linearGradient id="ad" x1="369.41" y1="192.11" x2="338.23" y2="192.11" gradientTransform="translate(53.54 -103.21)" gradientUnits="userSpaceOnUse"><stop offset="0" stop-color="#e37400"/><stop offset="1" stop-color="#e37400" stop-opacity="0"/></linearGradient><linearGradient id="ae" x1="485.58" y1="195.65" x2="485.58" y2="187.88" gradientTransform="translate(293.34 -297.9) rotate(45)" xlink:href="#r"/><linearGradient id="af" x1="316.57" y1="182.67" x2="316.57" y2="201.56" gradientTransform="translate(64.77 -130.32)" xlink:href="#o"/><linearGradient id="ag" x1="394.08" y1="226.95" x2="394.08" y2="224.24" gradientTransform="translate(293.34 -297.9) rotate(45)" xlink:href="#ad"/></defs><title>d_v4geo</title><line class="a" x1="31.67" y1="49.94" x2="684.66" y2="49.94"/><line class="b" x1="31.67" y1="120.79" x2="684.66" y2="120.79"/><line class="c" x1="31.67" y1="191.64" x2="684.66" y2="191.64"/><line class="d" x1="31.67" y1="262.49" x2="684.66" y2="262.49"/><path class="e" d="M513.23,36.43l-16.9-7a2.44,2.44,0,0,0-3.19,3.19l18.68,45a13.28,13.28,0,0,0-7.22.89c-6.07,2.52-9.27,8.71-7.15,13.84s8.77,7.23,14.84,4.71,9.27-8.71,7.15-13.84a.43.43,0,0,1,0-.07l-19.49-47,11.46,4.74a2.44,2.44,0,0,0,1.86-4.51Z"/><path class="f" d="M513.61,93.9c-6.07,2.52-12.71.41-14.84-4.71a8.83,8.83,0,0,1-.4-5.44,9.46,9.46,0,0,0-.92,8.63c2.13,5.12,8.77,7.23,14.84,4.71a12.47,12.47,0,0,0,7.55-8.4A13.2,13.2,0,0,1,513.61,93.9Z"/><path class="g" d="M127.06,123.25V46.63a17.37,17.37,0,0,0,9.18,2.55c8.61,0,15.59-5.89,15.59-13.15s-7-13.15-15.59-13.15S120.66,28.76,120.66,36v87.22a3.21,3.21,0,0,0,3.2,3.2h0A3.2,3.2,0,0,0,127.06,123.25Z"/><path class="h" d="M606.44,226.54V186.62a9.14,9.14,0,0,0,4.79,1.32c4.49,0,8.12-3.06,8.12-6.85s-3.63-6.85-8.12-6.85-8.12,3.07-8.12,6.85v45.45a1.66,1.66,0,0,0,1.67,1.66h0A1.66,1.66,0,0,0,606.44,226.54Z"/><path class="i" d="M153,190.67l6.71-12.87a2.41,2.41,0,0,0-1.45-3.42l-44.94-13.44a2.41,2.41,0,0,0-2.83,1.19L103.81,175h0L89,203.31a13,13,0,0,0-5.26-4.94c-5.76-3-12.51-1.45-15.08,3.48s0,11.35,5.79,14.35,12.46,1.46,15-3.42a.35.35,0,0,0,0-.08L107.16,179l40.22,12-13.31,25.54a13,13,0,0,0-5.25-4.94c-5.76-3-12.51-1.44-15.08,3.48s0,11.35,5.79,14.36S132,230.88,134.61,226L153,190.67Zm-43.57-16.06,4.42-8.48,40.22,12-4.42,8.49Z"/><path class="j" d="M77.73,215.18c-5.76-3-8.35-9.43-5.78-14.36a9,9,0,0,1,4-3.85,9.54,9.54,0,0,0-7.23,4.88c-2.56,4.92,0,11.35,5.79,14.35a12.23,12.23,0,0,0,11.1.37A12.91,12.91,0,0,1,77.73,215.18Z"/><path class="j" d="M122.78,228.41c-5.76-3-8.35-9.43-5.78-14.35a9,9,0,0,1,4-3.85,9.51,9.51,0,0,0-7.23,4.87c-2.57,4.93,0,11.35,5.79,14.36a12.29,12.29,0,0,0,11.1.37A13,13,0,0,1,122.78,228.41Z"/><path class="k" d="M654.51,93.19V70a3.85,3.85,0,0,0-4.58-3.78L576.44,80.37a3.86,3.86,0,0,0-3.12,3.79v23h0v51a20.84,20.84,0,0,0-11.08-3.12c-10.37,0-18.77,7.18-18.77,16.05s8.4,16,18.77,16,18.7-7.13,18.77-15.95c0-.05,0-.1,0-.15V110.44L646.81,97.8v45.94a20.93,20.93,0,0,0-11.08-3.11c-10.36,0-18.77,7.19-18.77,16.05s8.41,16,18.77,16,18.78-7.18,18.78-16V93.19ZM581,102.6V87.34L646.81,74.7V90Z"/><rect class="l" x="469.98" y="304.31" width="143.74" height="7.61"/><rect class="m" x="121.24" y="304.31" width="143.74" height="7.61"/><rect class="n" x="247.01" y="304.31" width="143.74" height="7.61"/><rect class="o" x="245.21" y="103.92" width="11.69" height="201.97"/><rect class="p" x="245.21" y="145.88" width="11.69" height="8.03"/><rect class="q" x="168.94" y="49.64" width="164.23" height="96.24"/><rect class="r" x="197.87" y="14.72" width="103.88" height="119.6"/><rect class="s" x="212.94" y="26.94" width="73.75" height="20"/><line class="s" x1="212.94" y1="29.94" x2="286.69" y2="29.94"/><line class="s" x1="212.94" y1="32.94" x2="286.69" y2="32.94"/><line class="s" x1="212.94" y1="40.94" x2="286.69" y2="40.94"/><line class="s" x1="212.94" y1="43.94" x2="286.69" y2="43.94"/><rect class="s" x="212.94" y="64.52" width="73.75" height="20"/><line class="s" x1="212.94" y1="67.52" x2="286.69" y2="67.52"/><line class="s" x1="212.94" y1="70.52" x2="286.69" y2="70.52"/><line class="s" x1="212.94" y1="78.52" x2="286.69" y2="78.52"/><line class="s" x1="212.94" y1="81.52" x2="286.69" y2="81.52"/><rect class="s" x="212.94" y="102.1" width="73.75" height="20"/><line class="s" x1="212.94" y1="105.1" x2="286.69" y2="105.1"/><line class="s" x1="212.94" y1="108.1" x2="286.69" y2="108.1"/><line class="s" x1="212.94" y1="116.1" x2="286.69" y2="116.1"/><line class="s" x1="212.94" y1="119.1" x2="286.69" y2="119.1"/><rect class="t" x="168.94" y="120.79" width="164.23" height="13.53"/><path class="u" d="M229.72,304.31h42.67a7.61,7.61,0,0,1,7.61,7.61v0a0,0,0,0,1,0,0H222.11a0,0,0,0,1,0,0v0A7.61,7.61,0,0,1,229.72,304.31Z"/><path class="v" d="M352.23,45a5.37,5.37,0,0,1-4.68-6.49,5.46,5.46,0,0,1,5.95-4.16l.64.06a1.78,1.78,0,0,1,1.57,2L355,43.54A1.76,1.76,0,0,1,353,45.11Z"/><rect class="v" x="353.26" y="38.29" width="7.57" height="3.7" transform="translate(6.15 -37.11) rotate(6)"/><path class="v" d="M347.92,60.32a5.35,5.35,0,0,1-4.68-6.48,5.46,5.46,0,0,1,5.95-4.17l.63.07a1.76,1.76,0,0,1,1.58,1.94l-.75,7.15a1.78,1.78,0,0,1-1.95,1.58Z"/><rect class="v" x="349.58" y="53.65" width="7.57" height="3.7" transform="translate(7.74 -36.64) rotate(6)"/><path class="w" d="M394.94,236.72c-4.83-2.58-8.46-10.25-8.67-19.4-.23-10.23,3.9-18.82,9.52-20.54l.28.58,6.41.68q.6-15,1.66-30c1.67-20.45-12.29-37.5-33.11-39.69l-13.65-1.44c-20.82-2.19-38,11.59-40.64,31.94q-2.1,14.83-4.61,29.67a7.81,7.81,0,0,1,5-.55c6.41,1.51,9.48,11.71,6.86,22.78s-9.94,18.82-16.34,17.3a7.21,7.21,0,0,1-2.88-1.42q-2.87,13.14-6.24,26.21c-7.54,27.47,8.13,53.59,36.86,56.61l19.22,2c28.73,3,49.49-19.27,47.83-47.7-.4-9-.6-18-.65-26.94l-6.4-.67Z"/><polygon class="w" points="312.13 188.54 305.73 187.86 307.91 184.22 311.67 185.2 312.64 185.51 312.13 188.54"/><polygon class="w" points="304.75 226.65 298.35 225.98 298.09 228.43 304.19 229.07 304.75 226.65"/><path class="x" d="M353.37,310.09a48.45,48.45,0,0,1-5.08-.27l-19.21-2c-12.9-1.35-23.75-7.59-30.56-17.56-7.17-10.5-9.16-24.27-5.45-37.79,2.06-7.95,4.06-16.3,5.94-24.84a7.78,7.78,0,0,0,2,.76,7.7,7.7,0,0,0,1.86.22c6.58,0,13.18-7.68,15.68-18.26,2.79-11.78-.55-22.32-7.6-24a8.2,8.2,0,0,0-1.85-.21,8.84,8.84,0,0,0-2.09.25c1.51-9,3-18.4,4.33-28C313.7,139.9,328.23,127,346.66,127c1.39,0,2.81.08,4.21.22l13.65,1.44c20,2.1,33.85,18.7,32.22,38.62-.67,9.72-1.21,19.24-1.59,28.34a8.43,8.43,0,0,0-3.67-.86h-.19c-7.24.16-12.69,9.78-12.42,21.88S385,238,392.1,238h.18a8.36,8.36,0,0,0,2.1-.33c.06,8.75.28,17.33.64,25.52.78,13.33-3.38,25.53-11.7,34.35a40.64,40.64,0,0,1-29.95,12.58Z"/><path class="y" d="M346.66,128a37.86,37.86,0,0,1,4.11.22l.63.06,13,1.37A35.19,35.19,0,0,1,388.08,142a34.83,34.83,0,0,1,7.66,25.28c-.64,9.22-1.15,18.27-1.53,26.95a9.46,9.46,0,0,0-2.73-.41h-.21c-3.93.09-7.48,2.67-10,7.26a31.58,31.58,0,0,0-3.41,15.65c.29,12.49,6.54,22.27,14.23,22.27h.2a9.81,9.81,0,0,0,1.09-.09c.07,8.33.29,16.5.63,24.35.77,13-3.29,25-11.43,33.59a39.64,39.64,0,0,1-29.22,12.27,49.12,49.12,0,0,1-5-.26l-1.6-.17-17.62-1.85c-12.6-1.33-23.19-7.41-29.83-17.13-7-10.26-8.94-23.73-5.31-37,2-7.58,3.88-15.52,5.68-23.66a8.84,8.84,0,0,0,3.14.56c7,0,14-8,16.65-19,2.92-12.33-.74-23.4-8.34-25.19a9.12,9.12,0,0,0-2.09-.24,8.57,8.57,0,0,0-.87,0c1.43-8.57,2.81-17.53,4.11-26.72,2.3-17.91,16.43-30.42,34.34-30.42h0m0-2c-18.84,0-33.89,13.24-36.32,32.17q-2.1,14.84-4.61,29.66a8.44,8.44,0,0,1,3.35-.73,7.47,7.47,0,0,1,1.63.18c6.41,1.52,9.48,11.72,6.86,22.79-2.4,10.14-8.74,17.49-14.71,17.49a6.85,6.85,0,0,1-1.63-.19,7.34,7.34,0,0,1-2.88-1.42q-2.87,13.14-6.24,26.21c-7.54,27.46,8.13,53.59,36.86,56.61l19.22,2a50.8,50.8,0,0,0,5.18.27c26,0,44.21-21.28,42.65-48-.4-9-.6-18-.65-26.93a7.27,7.27,0,0,1-3.11.79h-.16c-6.51,0-12-9-12.23-20.32s4.87-20.71,11.45-20.86h.16a7.88,7.88,0,0,1,4.59,1.57q.62-15,1.67-30c1.67-20.45-12.29-37.51-33.11-39.7L351,126.26a42.27,42.27,0,0,0-4.32-.23Z"/><polygon class="z" points="375.8 31.76 365.13 30.64 342.88 199.16 362.51 201.22 375.8 31.76"/><polygon class="z" points="375.8 31.76 365.13 30.64 357.37 61.32 377 63.38 375.8 31.76"/><polygon class="z" points="358.37 24.32 369.82 12.71 372.38 12.98 383.72 26.98 369.71 38.33 358.37 24.32"/><polygon class="aa" points="373.24 31.49 362.56 30.37 340.32 198.89 359.95 200.95 373.24 31.49"/><polygon class="aa" points="373.24 31.49 362.56 30.37 354.81 61.05 374.44 63.11 373.24 31.49"/><rect class="aa" x="359.47" y="16.37" width="18.02" height="18.02" transform="translate(670.83 -186.78) rotate(141)"/><path class="aa" d="M335.13,216.74a4,4,0,0,0,2.36-2.94,3.57,3.57,0,0,0-.14-1.81,4.59,4.59,0,0,0-4.07-3.09,4.6,4.6,0,0,0-1.69.26,4.05,4.05,0,0,0-1.4.87,6.29,6.29,0,0,0-1.45,3.22c-.27,1.31-.4,2.79-.57,4.25-.35,2.92-.66,5.85-1,8.77s-.63,5.86-.86,8.75a28,28,0,0,1-.63,4.63,10.25,10.25,0,0,1-.9,2.39,7.14,7.14,0,0,1-1.74,2.11,6.83,6.83,0,0,1-2.41,1.24,6.4,6.4,0,0,1-2.68.19,6.5,6.5,0,0,1-4.4-2.64,6.33,6.33,0,0,1-1-2.35,5,5,0,0,1,.14-2.57,5.07,5.07,0,0,1,1.35-2.1,4.86,4.86,0,0,1,2.13-1.11l.19.61a4,4,0,0,0-2.36,3,3.69,3.69,0,0,0,.13,1.81,4.65,4.65,0,0,0,.94,1.59,4.54,4.54,0,0,0,3.14,1.51,4.46,4.46,0,0,0,1.7-.27,4.23,4.23,0,0,0,1.44-.87A5.79,5.79,0,0,0,322.9,239a25.5,25.5,0,0,0,.38-4.16c.15-3,.44-5.94.72-8.9s.69-5.88,1.1-8.83c.23-1.46.42-2.93.8-4.5a11.36,11.36,0,0,1,.83-2.37,7.1,7.1,0,0,1,1.67-2.18,6.55,6.55,0,0,1,9.53,1.17,6.45,6.45,0,0,1,1,2.36,5,5,0,0,1-.14,2.57,5.07,5.07,0,0,1-1.35,2.1,4.84,4.84,0,0,1-2.14,1.11Z"/><circle class="aa" cx="334.77" cy="215.13" r="2.29"/><circle class="aa" cx="316.58" cy="237.07" r="2.29"/><path class="aa" d="M361.31,219.5a4,4,0,0,1-1.69-3.37,3.64,3.64,0,0,1,.51-1.75,4.57,4.57,0,0,1,1.24-1.35,4.45,4.45,0,0,1,3.38-.82,4.32,4.32,0,0,1,1.6.61,3.94,3.94,0,0,1,1.19,1.14,6.24,6.24,0,0,1,.75,3.45c0,1.34-.19,2.81-.33,4.28-.26,2.92-.57,5.85-.88,8.77s-.61,5.86-1,8.74a27.65,27.65,0,0,0-.35,4.66,10.37,10.37,0,0,0,.39,2.53,6.66,6.66,0,0,0,3.35,4.13,6.4,6.4,0,0,0,2.58.75,6.55,6.55,0,0,0,4.87-1.67,6.4,6.4,0,0,0,1.49-2.09,5,5,0,0,0,.39-2.54,5,5,0,0,0-.87-2.33,4.9,4.9,0,0,0-1.86-1.53l-.32.56a4,4,0,0,1,1.7,3.37,3.67,3.67,0,0,1-.51,1.75,4.57,4.57,0,0,1-1.24,1.35,4.43,4.43,0,0,1-5,.21,4.38,4.38,0,0,1-1.23-1.15,5.78,5.78,0,0,1-.84-3.4,24.33,24.33,0,0,1,.49-4.15c.48-3,.8-5.9,1.14-8.85s.56-5.9.77-8.87c.07-1.48.2-3,.15-4.57a11.65,11.65,0,0,0-.32-2.49,6.9,6.9,0,0,0-1.18-2.48,6.62,6.62,0,0,0-4.69-2.51,6.55,6.55,0,0,0-4.87,1.68,6.3,6.3,0,0,0-1.49,2.09,4.85,4.85,0,0,0-.4,2.54,5,5,0,0,0,.88,2.33,4.83,4.83,0,0,0,1.86,1.54Z"/><circle class="aa" cx="362" cy="218" r="2.29"/><circle class="aa" cx="375.22" cy="243.24" r="2.29"/><polygon class="aa" points="344.11 310.23 333.17 309.07 333.21 247.19 356.95 249.69 344.11 310.23"/><path class="aa" d="M332.63,310.15c9.1,1,16.47,1.73,17.12-4.43.2-1.84-1.79-3.71-5.09-5.2a9,9,0,0,0,1.36-3.85c.8-7.6-8.61-14.82-21-16.12s-23.1,3.8-23.9,11.4S309.61,307.73,322,309Z"/><path class="v" d="M382.83,57.31a5.36,5.36,0,0,0,5.93-5.37,5.47,5.47,0,0,0-5-5.32l-.63-.06a1.77,1.77,0,0,0-1.95,1.57l-.75,7.15a1.79,1.79,0,0,0,1.58,1.95Z"/><path class="v" d="M376.5,49.6h5.72a0,0,0,0,1,0,0v3.7a0,0,0,0,1,0,0H376.5a1.85,1.85,0,0,1-1.85-1.85v0A1.85,1.85,0,0,1,376.5,49.6Z" transform="translate(7.45 -39.29) rotate(6)"/><path class="v" d="M381.88,43.19a5.37,5.37,0,0,0,5.92-5.38,5.46,5.46,0,0,0-4.95-5.31l-.64-.07A1.77,1.77,0,0,0,380.27,34l-.75,7.15a1.76,1.76,0,0,0,1.57,1.94Z"/><path class="v" d="M375.56,35.48h5.72a0,0,0,0,1,0,0v3.7a0,0,0,0,1,0,0h-5.72a1.85,1.85,0,0,1-1.85-1.85v0A1.85,1.85,0,0,1,375.56,35.48Z" transform="translate(5.97 -39.27) rotate(6)"/><path class="ab" d="M518.77,244.33l-39.11-39.12,5.87-5.87,39.11,39.12a20.1,20.1,0,0,0,28.4,0l2.48-2.49,5.87,5.87-2.48,2.49A28.43,28.43,0,0,1,518.77,244.33Z"/><rect class="ac" x="461.5" y="124.63" width="3.11" height="9.62" transform="translate(227.15 -289.52) rotate(45)"/><rect class="y" x="464.35" y="125.81" width="3.11" height="1.56" transform="translate(225.97 -292.37) rotate(45)"/><path class="ad" d="M463.8,124.32h6.4a1.33,1.33,0,0,1,1.33,1.33v1a0,0,0,0,1,0,0h-9.06a0,0,0,0,1,0,0v-1A1.33,1.33,0,0,1,463.8,124.32Z" transform="translate(225.52 -293.46) rotate(45)"/><rect class="ae" x="429.54" y="121.71" width="12.18" height="70.32" rx="1.11" ry="1.11" transform="translate(238.51 -262.09) rotate(45)"/><rect class="af" x="406.4" y="176.2" width="13.31" height="6.47" rx="1.01" ry="1.01" transform="translate(247.86 -239.52) rotate(45)"/><path class="ag" d="M409.91,173.17h0a1,1,0,0,1,1.43,0l8,8a1,1,0,0,1,0,1.43l0,0Z"/><rect class="ah" x="471.73" y="134.85" width="3.11" height="9.62" transform="translate(237.38 -293.76) rotate(45)"/><rect class="y" x="474.57" y="136.03" width="3.11" height="1.56" transform="translate(236.2 -296.6) rotate(45)"/><path class="ai" d="M474,134.55h6.4a1.33,1.33,0,0,1,1.33,1.33v1a0,0,0,0,1,0,0h-9.06a0,0,0,0,1,0,0v-1A1.33,1.33,0,0,1,474,134.55Z" transform="translate(235.75 -297.69) rotate(45)"/><rect class="aj" x="439.77" y="131.93" width="12.18" height="70.32" rx="1.11" ry="1.11" transform="translate(248.74 -266.33) rotate(45)"/><rect class="ak" x="416.63" y="186.43" width="13.31" height="6.47" rx="1.01" ry="1.01" transform="translate(258.09 -243.76) rotate(45)"/><path class="ag" d="M420.13,183.4l0,0a1,1,0,0,1,1.43,0l8,8a1,1,0,0,1,0,1.44h0Z"/><rect class="al" x="481.85" y="144.98" width="3.11" height="9.62" transform="translate(247.51 -297.95) rotate(45)"/><rect class="y" x="484.7" y="146.16" width="3.11" height="1.56" transform="translate(246.33 -300.8) rotate(45)"/><path class="am" d="M484.15,144.68h6.4a1.33,1.33,0,0,1,1.33,1.33v1a0,0,0,0,1,0,0h-9.06a0,0,0,0,1,0,0v-1a1.33,1.33,0,0,1,1.33-1.33Z" transform="translate(245.87 -301.89) rotate(45)"/><rect class="an" x="449.89" y="142.06" width="12.18" height="70.32" rx="1.11" ry="1.11" transform="translate(258.87 -270.52) rotate(45)"/><rect class="ao" x="426.76" y="196.55" width="13.31" height="6.47" rx="1.01" ry="1.01" transform="translate(268.22 -247.95) rotate(45)"/><path class="ag" d="M430.26,193.53l0,0a1,1,0,0,1,1.43,0l8,8a1,1,0,0,1,0,1.43l0,0Z"/><polygon class="ap" points="453.87 128.45 389.78 64.36 389.62 56.71 385.88 60.45 384.72 59.3 378.85 65.17 380 66.32 376.26 70.07 383.91 70.23 448 134.32 453.87 128.45"/><g class="aq"><rect class="y" x="446.33" y="138.37" width="12.18" height="3.4" transform="translate(231.56 -278.88) rotate(45)"/><rect class="y" x="456.51" y="148.55" width="12.18" height="3.4" transform="translate(241.73 -283.1) rotate(45)"/><rect class="y" x="466.69" y="158.73" width="12.18" height="3.4" transform="translate(251.91 -287.31) rotate(45)"/><rect class="y" x="427.38" y="157.33" width="12.18" height="3.4" transform="translate(239.41 -259.93) rotate(45)"/><rect class="y" x="437.56" y="167.5" width="12.18" height="3.4" transform="translate(249.59 -264.15) rotate(45)"/><rect class="y" x="447.73" y="177.68" width="12.18" height="3.4" transform="translate(259.76 -268.36) rotate(45)"/><rect class="y" x="419.14" y="165.57" width="12.18" height="3.4" transform="translate(242.82 -251.69) rotate(45)"/><rect class="y" x="429.32" y="175.74" width="12.18" height="3.4" transform="translate(253 -255.91) rotate(45)"/><rect class="y" x="439.49" y="185.92" width="12.18" height="3.4" transform="translate(263.18 -260.12) rotate(45)"/></g><rect class="ar" x="390.3" y="84.75" width="36.31" height="8.3" transform="translate(182.5 -262.78) rotate(45)"/><path class="as" d="M412.92,99.24,557.11,243.43a66.08,66.08,0,0,1,19.34,45.34l.44,20.56,52-52-20.56-.43A66.08,66.08,0,0,1,563,237.56L418.84,93.42a23.85,23.85,0,1,0-33.95,33.51l108,108a10.1,10.1,0,0,0,14.08.3,10,10,0,0,0,.17-14.28l-84-84a10.18,10.18,0,0,0-14.26-.13,10,10,0,0,0-1.08,1.28l-17-17a15.55,15.55,0,1,1,22.16-21.82Zm4.21,43.44,84.11,84.11a1.68,1.68,0,0,1,0,2.37,1.67,1.67,0,0,1-2.37,0l-84.11-84.1a1.69,1.69,0,0,1,0-2.38A1.68,1.68,0,0,1,417.13,142.68Z"/><rect class="at" x="379.09" y="52.35" width="4.51" height="18.9" transform="translate(155.39 -251.55) rotate(45)"/><rect class="v" x="602.31" y="245.4" width="1.6" height="77.66" rx="0.8" ry="0.8" transform="translate(377.63 -343.21) rotate(45)"/><path class="au" d="M407.8,138.1l7,7a1.69,1.69,0,0,1,0-2.38,1.68,1.68,0,0,1,2.37,0l-6.95-6.94a8.76,8.76,0,0,0-1.3,1.08A10,10,0,0,0,407.8,138.1Z"/></svg>