<svg xmlns="http://www.w3.org/2000/svg" xmlns:xlink="http://www.w3.org/1999/xlink" viewBox="0 0 720 316"><defs><style>.a,.ad,.ae,.af,.ag,.ah,.ai,.aj,.ak,.b,.c,.d,.e,.f,.g,.h,.i,.j,.k,.l,.r,.s,.t,.u,.v,.w,.x,.y{fill:none;}.ad,.ae,.af,.ag,.ah,.ai,.aj,.ak,.b,.c,.d,.e,.f,.g,.h,.i,.j,.k,.l,.r,.s,.t,.u,.v,.w,.x,.y{stroke-miterlimit:10;}.ad,.ae,.af,.ag,.ah,.ai,.aj,.ak,.b,.c,.d,.e,.f,.g,.h,.i,.j,.k,.r,.s,.t,.u,.v,.w,.x,.y{stroke-width:2px;}.b,.c,.d,.e,.f,.g,.h,.i,.j,.k{opacity:0.5;}.b{stroke:url(#a);}.c{stroke:url(#b);}.d{stroke:url(#c);}.e{stroke:url(#d);}.f{stroke:url(#e);}.g{stroke:url(#f);}.h{stroke:url(#g);}.i{stroke:url(#h);}.j{stroke:url(#i);}.k{stroke:url(#j);}.l{stroke-width:14px;stroke:url(#k);}.bc,.bk,.bl,.m,.n{opacity:0.2;}.m{fill:url(#l);}.n{fill:url(#m);}.o{fill:#bdc1c6;}.p{fill:#e8eaed;}.q{clip-path:url(#n);}.r{stroke:#dadce0;}.s{stroke:#d6d8dc;}.t{stroke:#d2d4d9;}.u{stroke:#ced0d5;}.v{stroke:#c9cdd1;}.w{stroke:#c5c9cd;}.x{stroke:#c1c5ca;}.y{stroke:#bdc1c6;}.z{fill:#ea8600;}.aa{fill:#fdd663;}.ab{fill:url(#o);}.ac{clip-path:url(#p);}.ad{stroke:#fdde83;}.ae{stroke:#fdda73;}.af{stroke:#fcd563;}.ag{stroke:#fcd153;}.ah{stroke:#fccd44;}.ai{stroke:#fcc934;}.aj{stroke:#fbc424;}.ak{stroke:#fbc014;}.al{fill:#f29900;}.am{fill:url(#q);}.an{clip-path:url(#r);}.ao{fill:url(#s);}.ap{clip-path:url(#t);}.aq{fill:url(#u);}.ar{clip-path:url(#v);}.as{fill:url(#w);}.at{clip-path:url(#x);}.au{fill:url(#y);}.av{clip-path:url(#z);}.aw{fill:url(#aa);}.ax{clip-path:url(#ab);}.ay{fill:url(#ac);}.az{clip-path:url(#ad);}.ba{fill:url(#ae);}.bb{clip-path:url(#af);}.bc{fill:url(#ag);}.bd{fill:#f1f3f4;}.be{fill:url(#ah);}.bf{fill:#f28b82;}.bg{fill:#e94235;}.bh{fill:#9aa0a6;}.bi{fill:#fff;}.bj{fill:#f8f9fa;}.bk{fill:url(#ai);}.bl{fill:url(#aj);}.bm{fill:url(#ak);}.bn{fill:url(#al);}.bo{fill:#669df6;}.bp{fill:#1a73e8;}.bq{fill:url(#am);}.br{fill:#174ea6;opacity:0.42;}.bs{fill:url(#an);}.bt{fill:#f2f2f2;}.bu{fill:url(#ao);}.bv{clip-path:url(#ap);}.bw{fill:url(#aq);}.bx{clip-path:url(#ar);}.by{fill:url(#as);}.bz{clip-path:url(#at);}.ca{fill:url(#au);}.cb{clip-path:url(#av);}.cc{fill:url(#aw);}.cd{clip-path:url(#ax);}.ce{fill:url(#ay);}.cf{clip-path:url(#az);}.cg{fill:url(#ba);}.ch{clip-path:url(#bb);}.ci{fill:url(#bc);}.cj{clip-path:url(#bd);}.ck{fill:url(#be);}.cl{clip-path:url(#bf);}.cm{fill:url(#bg);}.cn{clip-path:url(#bh);}.co{fill:url(#bi);}.cp{clip-path:url(#bj);}.cq{clip-path:url(#bk);}.cr{clip-path:url(#bl);}.cs{clip-path:url(#bm);}.ct{clip-path:url(#bn);}.cu{clip-path:url(#bo);}.cv{clip-path:url(#bp);}.cw{clip-path:url(#bq);}.cx{clip-path:url(#br);}.cy{clip-path:url(#bs);}.cz{clip-path:url(#bt);}</style><linearGradient id="a" y1="28.02" x2="720" y2="28.02" gradientUnits="userSpaceOnUse"><stop offset="0" stop-color="#f1f3f4" stop-opacity="0"/><stop offset="0.13" stop-color="#f1f3f4"/><stop offset="0.52" stop-color="#f1f3f4"/><stop offset="0.89" stop-color="#f1f3f4"/><stop offset="1" stop-color="#f1f3f4" stop-opacity="0"/></linearGradient><linearGradient id="b" y1="56.43" y2="56.43" xlink:href="#a"/><linearGradient id="c" y1="84.83" y2="84.83" xlink:href="#a"/><linearGradient id="d" y1="113.23" y2="113.23" xlink:href="#a"/><linearGradient id="e" y1="141.64" y2="141.64" xlink:href="#a"/><linearGradient id="f" y1="170.04" y2="170.04" xlink:href="#a"/><linearGradient id="g" y1="198.45" y2="198.45" xlink:href="#a"/><linearGradient id="h" y1="226.85" y2="226.85" xlink:href="#a"/><linearGradient id="i" y1="255.25" y2="255.25" xlink:href="#a"/><linearGradient id="j" y1="283.66" y2="283.66" xlink:href="#a"/><linearGradient id="k" x1="7.33" y1="116.53" x2="700.65" y2="116.53" xlink:href="#a"/><linearGradient id="l" x1="91.82" y1="308.64" x2="206" y2="308.64" gradientUnits="userSpaceOnUse"><stop offset="0" stop-color="#202124" stop-opacity="0"/><stop offset="0.61" stop-color="#202124"/></linearGradient><linearGradient id="m" x1="0.49" y1="308.64" x2="114.67" y2="308.64" xlink:href="#l"/><clipPath id="n"><rect class="a" x="144.91" y="298.93" width="68" height="11.02"/></clipPath><linearGradient id="o" x1="65" y1="189.07" x2="133" y2="189.07" gradientUnits="userSpaceOnUse"><stop offset="0" stop-color="#f9ab00"/><stop offset="1" stop-color="#fbbc04"/></linearGradient><clipPath id="p"><rect class="a" x="65" y="183.56" width="68" height="11.02"/></clipPath><linearGradient id="q" x1="55" y1="203.5" x2="123" y2="203.5" xlink:href="#o"/><clipPath id="r"><rect class="a" x="55" y="197.98" width="68" height="11.02"/></clipPath><linearGradient id="s" x1="65" y1="217.92" x2="133" y2="217.92" xlink:href="#o"/><clipPath id="t"><rect class="a" x="65" y="212.41" width="68" height="11.02"/></clipPath><linearGradient id="u" x1="65" y1="232.34" x2="133" y2="232.34" xlink:href="#o"/><clipPath id="v"><rect class="a" x="65" y="226.83" width="68" height="11.02"/></clipPath><linearGradient id="w" x1="65" y1="246.76" x2="133" y2="246.76" xlink:href="#o"/><clipPath id="x"><rect class="a" x="65" y="241.25" width="68" height="11.02"/></clipPath><linearGradient id="y" x1="65" y1="261.18" x2="133" y2="261.18" xlink:href="#o"/><clipPath id="z"><rect class="a" x="65" y="255.67" width="68" height="11.02"/></clipPath><linearGradient id="aa" x1="65" y1="275.6" x2="133" y2="275.6" xlink:href="#o"/><clipPath id="ab"><rect class="a" x="65" y="270.09" width="68" height="11.02"/></clipPath><linearGradient id="ac" x1="65" y1="290.02" x2="133" y2="290.02" xlink:href="#o"/><clipPath id="ad"><rect class="a" x="65" y="284.51" width="68" height="11.02"/></clipPath><linearGradient id="ae" x1="65" y1="304.44" x2="133" y2="304.44" xlink:href="#o"/><clipPath id="af"><rect class="a" x="65" y="298.93" width="68" height="11.02"/></clipPath><linearGradient id="ag" x1="173.78" y1="308.64" x2="287.96" y2="308.64" xlink:href="#l"/><linearGradient id="ah" x1="232.91" y1="175.75" x2="421.78" y2="175.75" gradientUnits="userSpaceOnUse"><stop offset="0" stop-color="#dbdde1"/><stop offset="0.19" stop-color="#dadce0"/><stop offset="1" stop-color="#e8eaed"/></linearGradient><linearGradient id="ai" x1="362.08" y1="308.64" x2="476.26" y2="308.64" xlink:href="#l"/><linearGradient id="aj" x1="575.04" y1="308.64" x2="689.23" y2="308.64" gradientUnits="userSpaceOnUse"><stop offset="0" stop-color="#202124" stop-opacity="0"/><stop offset="0.61" stop-color="#202124"/><stop offset="1" stop-color="#202124" stop-opacity="0"/></linearGradient><linearGradient id="ak" x1="474.94" y1="178.86" x2="655.35" y2="178.86" gradientTransform="matrix(0.93, 0.36, -0.36, 0.93, 103.69, -193.21)" gradientUnits="userSpaceOnUse"><stop offset="0" stop-color="#188038"/><stop offset="1" stop-color="#1f8f3f"/></linearGradient><linearGradient id="al" x1="484.2" y1="188.86" x2="658.09" y2="188.86" gradientTransform="translate(59.56 -127.62) rotate(13.44)" gradientUnits="userSpaceOnUse"><stop offset="0" stop-color="#1e8e3e"/><stop offset="1" stop-color="#34a853"/></linearGradient><linearGradient id="am" x1="627.81" y1="210.42" x2="555.31" y2="233.92" gradientUnits="userSpaceOnUse"><stop offset="0" stop-color="#4285f4"/><stop offset="1" stop-color="#1a73e8"/></linearGradient><linearGradient id="an" x1="599.94" y1="233.45" x2="679.11" y2="233.45" gradientUnits="userSpaceOnUse"><stop offset="0" stop-color="#1a73e8"/><stop offset="0.8" stop-color="#4285f4"/><stop offset="1" stop-color="#8ab4f8"/></linearGradient><linearGradient id="ao" x1="449.5" y1="203.5" x2="517.5" y2="203.5" xlink:href="#o"/><clipPath id="ap"><rect class="a" x="449.5" y="197.98" width="68" height="11.02"/></clipPath><linearGradient id="aq" x1="447.5" y1="217.92" x2="515.5" y2="217.92" xlink:href="#o"/><clipPath id="ar"><rect class="a" x="447.5" y="212.41" width="68" height="11.02"/></clipPath><linearGradient id="as" x1="551.57" y1="339.29" x2="619.57" y2="339.29" gradientTransform="translate(-40.47 -69.68)" xlink:href="#o"/><clipPath id="at"><rect class="a" x="511.11" y="264.1" width="68" height="11.02" transform="translate(350.3 -306.48) rotate(45)"/></clipPath><linearGradient id="au" x1="522.61" y1="304.44" x2="590.61" y2="304.44" xlink:href="#o"/><clipPath id="av"><rect class="a" x="522.61" y="298.93" width="68" height="11.02"/></clipPath><linearGradient id="aw" x1="452.5" y1="189.17" x2="520.5" y2="189.17" xlink:href="#o"/><clipPath id="ax"><rect class="a" x="452.5" y="183.66" width="68" height="11.02"/></clipPath><linearGradient id="ay" x1="449.5" y1="232.34" x2="517.5" y2="232.34" xlink:href="#o"/><clipPath id="az"><rect class="a" x="449.5" y="226.83" width="68" height="11.02"/></clipPath><linearGradient id="ba" x1="449.5" y1="246.76" x2="517.5" y2="246.76" xlink:href="#o"/><clipPath id="bb"><rect class="a" x="449.5" y="241.25" width="68" height="11.02"/></clipPath><linearGradient id="bc" x1="449.5" y1="261.18" x2="517.5" y2="261.18" xlink:href="#o"/><clipPath id="bd"><rect class="a" x="449.5" y="255.67" width="68" height="11.02"/></clipPath><linearGradient id="be" x1="449.5" y1="275.6" x2="517.5" y2="275.6" xlink:href="#o"/><clipPath id="bf"><rect class="a" x="449.5" y="270.09" width="68" height="11.02"/></clipPath><linearGradient id="bg" x1="449.5" y1="290.02" x2="517.5" y2="290.02" xlink:href="#o"/><clipPath id="bh"><rect class="a" x="449.5" y="284.51" width="68" height="11.02"/></clipPath><linearGradient id="bi" x1="449.5" y1="304.44" x2="517.5" y2="304.44" xlink:href="#o"/><clipPath id="bj"><rect class="a" x="449.5" y="298.93" width="68" height="11.02"/></clipPath><clipPath id="bk"><rect class="a" x="144.91" y="284.51" width="68" height="11.02"/></clipPath><clipPath id="bl"><rect class="a" x="144.91" y="270.09" width="68" height="11.02"/></clipPath><clipPath id="bm"><rect class="a" x="144.91" y="255.67" width="68" height="11.02"/></clipPath><clipPath id="bn"><rect class="a" x="144.91" y="241.25" width="68" height="11.02"/></clipPath><clipPath id="bo"><rect class="a" x="144.91" y="226.83" width="68" height="11.02"/></clipPath><clipPath id="bp"><rect class="a" x="141.91" y="212.42" width="68" height="11.02"/></clipPath><clipPath id="bq"><rect class="a" x="144.91" y="198" width="68" height="11.02"/></clipPath><clipPath id="br"><rect class="a" x="148.95" y="183.67" width="68" height="11.02"/></clipPath><clipPath id="bs"><rect class="a" x="144.91" y="169.25" width="68" height="11.02"/></clipPath><clipPath id="bt"><rect class="a" x="144.91" y="154.83" width="68" height="11.02"/></clipPath></defs><title>d_v4geo</title><line class="b" y1="28.02" x2="720" y2="28.02"/><line class="c" y1="56.43" x2="720" y2="56.43"/><line class="d" y1="84.83" x2="720" y2="84.83"/><line class="e" y1="113.23" x2="720" y2="113.23"/><line class="f" y1="141.64" x2="720" y2="141.64"/><line class="g" y1="170.04" x2="720" y2="170.04"/><line class="h" y1="198.45" x2="720" y2="198.45"/><line class="i" y1="226.85" x2="720" y2="226.85"/><line class="j" y1="255.25" x2="720" y2="255.25"/><line class="k" y1="283.66" x2="720" y2="283.66"/><polyline class="l" points="10.95 209.01 129.44 137.38 167.91 169.24 243.45 110.02 308.81 149.08 464.45 28.02 524.96 111.13 557.38 82.02 583.34 105.54 697.45 47.02"/><rect class="m" x="91.82" y="305.64" width="114.18" height="6"/><rect class="n" x="0.49" y="305.64" width="114.18" height="6"/><polygon class="o" points="210.91 311.64 146.91 311.64 144.91 309.93 212.91 309.93 210.91 311.64"/><polygon class="o" points="146.91 297.22 210.91 297.22 212.91 298.93 144.91 298.93 146.91 297.22"/><rect class="p" x="144.91" y="298.93" width="68" height="11.02"/><g class="q"><line class="r" x1="205.36" y1="297.73" x2="205.36" y2="312.73"/><line class="s" x1="197.8" y1="297.73" x2="197.8" y2="312.73"/><line class="t" x1="190.25" y1="297.73" x2="190.25" y2="312.73"/><line class="u" x1="182.69" y1="297.73" x2="182.69" y2="312.73"/><line class="v" x1="175.13" y1="297.73" x2="175.13" y2="312.73"/><line class="w" x1="167.58" y1="297.73" x2="167.58" y2="312.73"/><line class="x" x1="160.02" y1="297.73" x2="160.02" y2="312.73"/><line class="y" x1="152.47" y1="297.73" x2="152.47" y2="312.73"/></g><polygon class="z" points="131 196.27 67 196.27 65 194.56 133 194.56 131 196.27"/><polygon class="aa" points="67 181.85 131 181.85 133 183.56 65 183.56 67 181.85"/><rect class="ab" x="65" y="183.56" width="68" height="11.02"/><g class="ac"><line class="ad" x1="125.44" y1="182.36" x2="125.44" y2="197.36"/><line class="ae" x1="117.89" y1="182.36" x2="117.89" y2="197.36"/><line class="af" x1="110.33" y1="182.36" x2="110.33" y2="197.36"/><line class="ag" x1="102.78" y1="182.36" x2="102.78" y2="197.36"/><line class="ah" x1="95.22" y1="182.36" x2="95.22" y2="197.36"/><line class="ai" x1="87.66" y1="182.36" x2="87.66" y2="197.36"/><line class="aj" x1="80.11" y1="182.36" x2="80.11" y2="197.36"/><line class="ak" x1="72.55" y1="182.36" x2="72.55" y2="197.36"/></g><polygon class="z" points="121 210.69 57 210.69 55 208.98 123 208.98 121 210.69"/><polygon class="al" points="57 196.27 121 196.27 123 197.98 55 197.98 57 196.27"/><rect class="am" x="55" y="197.98" width="68" height="11.02"/><g class="an"><line class="ad" x1="115.44" y1="196.78" x2="115.44" y2="211.78"/><line class="ae" x1="107.89" y1="196.78" x2="107.89" y2="211.78"/><line class="af" x1="100.33" y1="196.78" x2="100.33" y2="211.78"/><line class="ag" x1="92.78" y1="196.78" x2="92.78" y2="211.78"/><line class="ah" x1="85.22" y1="196.78" x2="85.22" y2="211.78"/><line class="ai" x1="77.66" y1="196.78" x2="77.66" y2="211.78"/><line class="aj" x1="70.11" y1="196.78" x2="70.11" y2="211.78"/><line class="ak" x1="62.55" y1="196.78" x2="62.55" y2="211.78"/></g><polygon class="z" points="131 225.12 67 225.12 65 223.41 133 223.41 131 225.12"/><polygon class="al" points="67 210.69 131 210.69 133 212.41 65 212.41 67 210.69"/><rect class="ao" x="65" y="212.41" width="68" height="11.02"/><g class="ap"><line class="ad" x1="125.44" y1="211.2" x2="125.44" y2="226.2"/><line class="ae" x1="117.89" y1="211.2" x2="117.89" y2="226.2"/><line class="af" x1="110.33" y1="211.2" x2="110.33" y2="226.2"/><line class="ag" x1="102.78" y1="211.2" x2="102.78" y2="226.2"/><line class="ah" x1="95.22" y1="211.2" x2="95.22" y2="226.2"/><line class="ai" x1="87.66" y1="211.2" x2="87.66" y2="226.2"/><line class="aj" x1="80.11" y1="211.2" x2="80.11" y2="226.2"/><line class="ak" x1="72.55" y1="211.2" x2="72.55" y2="226.2"/></g><polygon class="z" points="131 239.54 67 239.54 65 237.83 133 237.83 131 239.54"/><polygon class="al" points="67 225.12 131 225.12 133 226.83 65 226.83 67 225.12"/><rect class="aq" x="65" y="226.83" width="68" height="11.02"/><g class="ar"><line class="ad" x1="125.44" y1="225.62" x2="125.44" y2="240.62"/><line class="ae" x1="117.89" y1="225.62" x2="117.89" y2="240.62"/><line class="af" x1="110.33" y1="225.62" x2="110.33" y2="240.62"/><line class="ag" x1="102.78" y1="225.62" x2="102.78" y2="240.62"/><line class="ah" x1="95.22" y1="225.62" x2="95.22" y2="240.62"/><line class="ai" x1="87.66" y1="225.62" x2="87.66" y2="240.62"/><line class="aj" x1="80.11" y1="225.62" x2="80.11" y2="240.62"/><line class="ak" x1="72.55" y1="225.62" x2="72.55" y2="240.62"/></g><polygon class="z" points="131 253.96 67 253.96 65 252.25 133 252.25 131 253.96"/><polygon class="al" points="67 239.54 131 239.54 133 241.25 65 241.25 67 239.54"/><rect class="as" x="65" y="241.25" width="68" height="11.02"/><g class="at"><line class="ad" x1="125.44" y1="240.04" x2="125.44" y2="255.04"/><line class="ae" x1="117.89" y1="240.04" x2="117.89" y2="255.04"/><line class="af" x1="110.33" y1="240.04" x2="110.33" y2="255.04"/><line class="ag" x1="102.78" y1="240.04" x2="102.78" y2="255.04"/><line class="ah" x1="95.22" y1="240.04" x2="95.22" y2="255.04"/><line class="ai" x1="87.66" y1="240.04" x2="87.66" y2="255.04"/><line class="aj" x1="80.11" y1="240.04" x2="80.11" y2="255.04"/><line class="ak" x1="72.55" y1="240.04" x2="72.55" y2="255.04"/></g><polygon class="z" points="131 268.38 67 268.38 65 266.67 133 266.67 131 268.38"/><polygon class="al" points="67 253.96 131 253.96 133 255.67 65 255.67 67 253.96"/><rect class="au" x="65" y="255.67" width="68" height="11.02"/><g class="av"><line class="ad" x1="125.44" y1="254.46" x2="125.44" y2="269.46"/><line class="ae" x1="117.89" y1="254.46" x2="117.89" y2="269.46"/><line class="af" x1="110.33" y1="254.46" x2="110.33" y2="269.46"/><line class="ag" x1="102.78" y1="254.46" x2="102.78" y2="269.46"/><line class="ah" x1="95.22" y1="254.46" x2="95.22" y2="269.46"/><line class="ai" x1="87.66" y1="254.46" x2="87.66" y2="269.46"/><line class="aj" x1="80.11" y1="254.46" x2="80.11" y2="269.46"/><line class="ak" x1="72.55" y1="254.46" x2="72.55" y2="269.46"/></g><polygon class="z" points="131 282.8 67 282.8 65 281.09 133 281.09 131 282.8"/><polygon class="al" points="67 268.38 131 268.38 133 270.09 65 270.09 67 268.38"/><rect class="aw" x="65" y="270.09" width="68" height="11.02"/><g class="ax"><line class="ad" x1="125.44" y1="268.88" x2="125.44" y2="283.88"/><line class="ae" x1="117.89" y1="268.88" x2="117.89" y2="283.88"/><line class="af" x1="110.33" y1="268.88" x2="110.33" y2="283.88"/><line class="ag" x1="102.78" y1="268.88" x2="102.78" y2="283.88"/><line class="ah" x1="95.22" y1="268.88" x2="95.22" y2="283.88"/><line class="ai" x1="87.66" y1="268.88" x2="87.66" y2="283.88"/><line class="aj" x1="80.11" y1="268.88" x2="80.11" y2="283.88"/><line class="ak" x1="72.55" y1="268.88" x2="72.55" y2="283.88"/></g><polygon class="z" points="131 297.22 67 297.22 65 295.51 133 295.51 131 297.22"/><polygon class="al" points="67 282.8 131 282.8 133 284.51 65 284.51 67 282.8"/><rect class="ay" x="65" y="284.51" width="68" height="11.02"/><g class="az"><line class="ad" x1="125.44" y1="283.31" x2="125.44" y2="298.31"/><line class="ae" x1="117.89" y1="283.31" x2="117.89" y2="298.31"/><line class="af" x1="110.33" y1="283.31" x2="110.33" y2="298.31"/><line class="ag" x1="102.78" y1="283.31" x2="102.78" y2="298.31"/><line class="ah" x1="95.22" y1="283.31" x2="95.22" y2="298.31"/><line class="ai" x1="87.66" y1="283.31" x2="87.66" y2="298.31"/><line class="aj" x1="80.11" y1="283.31" x2="80.11" y2="298.31"/><line class="ak" x1="72.55" y1="283.31" x2="72.55" y2="298.31"/></g><polygon class="z" points="131 311.64 67 311.64 65 309.93 133 309.93 131 311.64"/><polygon class="al" points="67 297.22 131 297.22 133 298.93 65 298.93 67 297.22"/><rect class="ba" x="65" y="298.93" width="68" height="11.02"/><g class="bb"><line class="ad" x1="125.44" y1="297.73" x2="125.44" y2="312.73"/><line class="ae" x1="117.89" y1="297.73" x2="117.89" y2="312.73"/><line class="af" x1="110.33" y1="297.73" x2="110.33" y2="312.73"/><line class="ag" x1="102.78" y1="297.73" x2="102.78" y2="312.73"/><line class="ah" x1="95.22" y1="297.73" x2="95.22" y2="312.73"/><line class="ai" x1="87.66" y1="297.73" x2="87.66" y2="312.73"/><line class="aj" x1="80.11" y1="297.73" x2="80.11" y2="312.73"/><line class="ak" x1="72.55" y1="297.73" x2="72.55" y2="312.73"/></g><rect class="bc" x="173.78" y="305.64" width="114.18" height="6"/><rect class="bd" x="243.91" y="39.86" width="188.87" height="271.78" rx="11.52" ry="11.52"/><rect class="be" x="232.91" y="39.86" width="188.87" height="271.78" rx="11.52" ry="11.52"/><rect class="bf" x="378.14" y="220.31" width="27.14" height="73.88" rx="4.07" ry="4.07"/><rect class="bg" x="376.14" y="220.31" width="27.14" height="73.88" rx="4.07" ry="4.07"/><rect class="o" x="378.3" y="127.38" width="27.14" height="27.41" rx="4" ry="4"/><rect class="o" x="337.67" y="127.38" width="27.14" height="27.41" rx="4" ry="4"/><rect class="o" x="297.24" y="127.38" width="27.14" height="27.41" rx="4" ry="4"/><rect class="o" x="255.71" y="127.38" width="27.14" height="27.41" rx="4" ry="4"/><rect class="o" x="255.56" y="266.78" width="27.14" height="27.41" rx="4" ry="4"/><rect class="o" x="295.96" y="266.78" width="27.14" height="27.41" rx="4" ry="4"/><rect class="o" x="336.93" y="266.78" width="27.14" height="27.41" rx="4" ry="4"/><rect class="bh" x="253.56" y="266.78" width="27.14" height="27.41" rx="4" ry="4"/><rect class="bh" x="293.96" y="266.78" width="27.14" height="27.41" rx="4" ry="4"/><rect class="bh" x="334.93" y="266.78" width="27.14" height="27.41" rx="4" ry="4"/><rect class="o" x="255.56" y="173.85" width="27.14" height="27.41" rx="4" ry="4"/><rect class="o" x="295.96" y="173.85" width="27.14" height="27.41" rx="4" ry="4"/><rect class="o" x="336.93" y="173.85" width="27.14" height="27.41" rx="4" ry="4"/><rect class="o" x="378.14" y="173.85" width="27.14" height="27.41" rx="4" ry="4"/><rect class="bh" x="253.56" y="173.85" width="27.14" height="27.41" rx="4" ry="4"/><rect class="bh" x="293.96" y="173.85" width="27.14" height="27.41" rx="4" ry="4"/><rect class="bh" x="334.93" y="173.85" width="27.14" height="27.41" rx="4" ry="4"/><rect class="bh" x="376.14" y="173.85" width="27.14" height="27.41" rx="4" ry="4"/><rect class="bh" x="376.3" y="127.38" width="27.14" height="27.41" rx="4" ry="4"/><rect class="bh" x="335.67" y="127.38" width="27.14" height="27.41" rx="4" ry="4"/><rect class="bh" x="295.24" y="127.38" width="27.14" height="27.41" rx="4" ry="4"/><rect class="bh" x="253.71" y="127.38" width="27.14" height="27.41" rx="4" ry="4"/><rect class="o" x="295.96" y="220.31" width="27.14" height="27.41" rx="4" ry="4"/><rect class="o" x="336.93" y="220.31" width="27.14" height="27.41" rx="4" ry="4"/><rect class="o" x="255.56" y="220.31" width="27.14" height="27.41" rx="4" ry="4"/><rect class="bh" x="293.96" y="220.31" width="27.14" height="27.41" rx="4" ry="4"/><rect class="bh" x="334.93" y="220.31" width="27.14" height="27.41" rx="4" ry="4"/><rect class="bh" x="253.56" y="220.31" width="27.14" height="27.41" rx="4" ry="4"/><rect class="bi" x="253.28" y="56.99" width="149.96" height="52.9"/><polygon class="bj" points="253.28 56.99 253.28 59.99 400.23 59.99 400.23 109.9 403.23 109.9 403.23 56.99 253.28 56.99"/><rect class="bk" x="362.08" y="305.64" width="114.18" height="6"/><rect class="bl" x="575.04" y="305.64" width="114.18" height="6"/><rect class="bm" x="487.5" y="129.69" width="155.29" height="98.33" transform="translate(-26.35 217.69) rotate(-21.32)"/><rect class="bn" x="493.5" y="139.69" width="155.29" height="98.33" transform="translate(-28.26 137.97) rotate(-13.44)"/><path class="bo" d="M484.29,154.54H655.9a22.25,22.25,0,0,1,22.25,22.25V289.39a22.25,22.25,0,0,1-22.25,22.25H484.29a0,0,0,0,1,0,0V154.54A0,0,0,0,1,484.29,154.54Z"/><path class="bp" d="M482.29,154.54H653.9a22.25,22.25,0,0,1,22.25,22.25V289.39a22.25,22.25,0,0,1-22.25,22.25H482.29a0,0,0,0,1,0,0V154.54A0,0,0,0,1,482.29,154.54Z"/><path class="bo" d="M472.29,154.54H643.9a22.25,22.25,0,0,1,22.25,22.25V289.39a22.25,22.25,0,0,1-22.25,22.25H472.29a0,0,0,0,1,0,0V154.54A0,0,0,0,1,472.29,154.54Z"/><path class="bq" d="M470.29,154.54H641.9a22.25,22.25,0,0,1,22.25,22.25V289.39a22.25,22.25,0,0,1-22.25,22.25H470.29a0,0,0,0,1,0,0V154.54A0,0,0,0,1,470.29,154.54Z"/><path class="br" d="M676.15,216.41H617a19,19,0,0,0-19,19h0a19,19,0,0,0,19,19h59.17Z"/><path class="bs" d="M619,214.41h60.13a0,0,0,0,1,0,0v38.07a0,0,0,0,1,0,0H619a19,19,0,0,1-19-19v0A19,19,0,0,1,619,214.41Z"/><circle class="bt" cx="619.5" cy="233.55" r="8.9"/><polygon class="z" points="515.5 210.69 451.5 210.69 449.5 208.98 517.5 208.98 515.5 210.69"/><polygon class="al" points="451.5 196.27 515.5 196.27 517.5 197.98 449.5 197.98 451.5 196.27"/><rect class="bu" x="449.5" y="197.98" width="68" height="11.02"/><g class="bv"><line class="ad" x1="509.95" y1="196.78" x2="509.95" y2="211.78"/><line class="ae" x1="502.39" y1="196.78" x2="502.39" y2="211.78"/><line class="af" x1="494.83" y1="196.78" x2="494.83" y2="211.78"/><line class="ag" x1="487.28" y1="196.78" x2="487.28" y2="211.78"/><line class="ah" x1="479.72" y1="196.78" x2="479.72" y2="211.78"/><line class="ai" x1="472.17" y1="196.78" x2="472.17" y2="211.78"/><line class="aj" x1="464.61" y1="196.78" x2="464.61" y2="211.78"/><line class="ak" x1="457.06" y1="196.78" x2="457.06" y2="211.78"/></g><polygon class="z" points="513.5 225.12 449.5 225.12 447.5 223.41 515.5 223.41 513.5 225.12"/><polygon class="al" points="449.5 210.69 513.5 210.69 515.5 212.41 447.5 212.41 449.5 210.69"/><rect class="bw" x="447.5" y="212.41" width="68" height="11.02"/><g class="bx"><line class="ad" x1="507.95" y1="211.2" x2="507.95" y2="226.2"/><line class="ae" x1="500.39" y1="211.2" x2="500.39" y2="226.2"/><line class="af" x1="492.83" y1="211.2" x2="492.83" y2="226.2"/><line class="ag" x1="485.28" y1="211.2" x2="485.28" y2="226.2"/><line class="ah" x1="477.72" y1="211.2" x2="477.72" y2="226.2"/><line class="ai" x1="470.17" y1="211.2" x2="470.17" y2="226.2"/><line class="aj" x1="462.61" y1="211.2" x2="462.61" y2="226.2"/><line class="ak" x1="455.06" y1="211.2" x2="455.06" y2="226.2"/></g><polygon class="z" points="562.64 297.33 517.39 252.07 517.18 249.45 565.27 297.53 562.64 297.33"/><polygon class="aa" points="527.59 241.88 572.84 287.13 573.04 289.75 524.96 241.67 527.59 241.88"/><rect class="by" x="511.11" y="264.1" width="68" height="11.02" transform="translate(350.3 -306.48) rotate(45)"/><g class="bz"><line class="ad" x1="568.55" y1="283.56" x2="557.95" y2="294.17"/><line class="ae" x1="563.21" y1="278.22" x2="552.61" y2="288.82"/><line class="af" x1="557.87" y1="272.87" x2="547.26" y2="283.48"/><line class="ag" x1="552.53" y1="267.53" x2="541.92" y2="278.14"/><line class="ah" x1="547.18" y1="262.19" x2="536.58" y2="272.8"/><line class="ai" x1="541.84" y1="256.85" x2="531.24" y2="267.45"/><line class="aj" x1="536.5" y1="251.5" x2="525.89" y2="262.11"/><line class="ak" x1="531.16" y1="246.16" x2="520.55" y2="256.77"/></g><polygon class="z" points="588.61 311.64 524.61 311.64 522.61 309.93 590.61 309.93 588.61 311.64"/><polygon class="al" points="524.61 297.22 588.61 297.22 590.61 298.93 522.61 298.93 524.61 297.22"/><rect class="ca" x="522.61" y="298.93" width="68" height="11.02"/><g class="cb"><line class="ad" x1="583.06" y1="297.73" x2="583.06" y2="312.73"/><line class="ae" x1="575.5" y1="297.73" x2="575.5" y2="312.73"/><line class="af" x1="567.95" y1="297.73" x2="567.95" y2="312.73"/><line class="ag" x1="560.39" y1="297.73" x2="560.39" y2="312.73"/><line class="ah" x1="552.84" y1="297.73" x2="552.84" y2="312.73"/><line class="ai" x1="545.28" y1="297.73" x2="545.28" y2="312.73"/><line class="aj" x1="537.73" y1="297.73" x2="537.73" y2="312.73"/><line class="ak" x1="530.17" y1="297.73" x2="530.17" y2="312.73"/></g><polygon class="z" points="518.5 196.37 454.5 196.37 452.5 194.66 520.5 194.66 518.5 196.37"/><polygon class="al" points="454.5 181.95 518.5 181.95 520.5 183.66 452.5 183.66 454.5 181.95"/><rect class="cc" x="452.5" y="183.66" width="68" height="11.02"/><g class="cd"><line class="ad" x1="512.95" y1="182.45" x2="512.95" y2="197.45"/><line class="ae" x1="505.39" y1="182.45" x2="505.39" y2="197.45"/><line class="af" x1="497.83" y1="182.45" x2="497.83" y2="197.45"/><line class="ag" x1="490.28" y1="182.45" x2="490.28" y2="197.45"/><line class="ah" x1="482.72" y1="182.45" x2="482.72" y2="197.45"/><line class="ai" x1="475.17" y1="182.45" x2="475.17" y2="197.45"/><line class="aj" x1="467.61" y1="182.45" x2="467.61" y2="197.45"/><line class="ak" x1="460.06" y1="182.45" x2="460.06" y2="197.45"/></g><polygon class="z" points="515.5 239.54 451.5 239.54 449.5 237.83 517.5 237.83 515.5 239.54"/><polygon class="al" points="451.5 225.12 515.5 225.12 517.5 226.83 449.5 226.83 451.5 225.12"/><rect class="ce" x="449.5" y="226.83" width="68" height="11.02"/><g class="cf"><line class="ad" x1="509.95" y1="225.62" x2="509.95" y2="240.62"/><line class="ae" x1="502.39" y1="225.62" x2="502.39" y2="240.62"/><line class="af" x1="494.83" y1="225.62" x2="494.83" y2="240.62"/><line class="ag" x1="487.28" y1="225.62" x2="487.28" y2="240.62"/><line class="ah" x1="479.72" y1="225.62" x2="479.72" y2="240.62"/><line class="ai" x1="472.17" y1="225.62" x2="472.17" y2="240.62"/><line class="aj" x1="464.61" y1="225.62" x2="464.61" y2="240.62"/><line class="ak" x1="457.06" y1="225.62" x2="457.06" y2="240.62"/></g><polygon class="z" points="515.5 253.96 451.5 253.96 449.5 252.25 517.5 252.25 515.5 253.96"/><polygon class="al" points="451.5 239.54 515.5 239.54 517.5 241.25 449.5 241.25 451.5 239.54"/><rect class="cg" x="449.5" y="241.25" width="68" height="11.02"/><g class="ch"><line class="ad" x1="509.95" y1="240.04" x2="509.95" y2="255.04"/><line class="ae" x1="502.39" y1="240.04" x2="502.39" y2="255.04"/><line class="af" x1="494.83" y1="240.04" x2="494.83" y2="255.04"/><line class="ag" x1="487.28" y1="240.04" x2="487.28" y2="255.04"/><line class="ah" x1="479.72" y1="240.04" x2="479.72" y2="255.04"/><line class="ai" x1="472.17" y1="240.04" x2="472.17" y2="255.04"/><line class="aj" x1="464.61" y1="240.04" x2="464.61" y2="255.04"/><line class="ak" x1="457.06" y1="240.04" x2="457.06" y2="255.04"/></g><polygon class="z" points="515.5 268.38 451.5 268.38 449.5 266.67 517.5 266.67 515.5 268.38"/><polygon class="al" points="451.5 253.96 515.5 253.96 517.5 255.67 449.5 255.67 451.5 253.96"/><rect class="ci" x="449.5" y="255.67" width="68" height="11.02"/><g class="cj"><line class="ad" x1="509.95" y1="254.46" x2="509.95" y2="269.46"/><line class="ae" x1="502.39" y1="254.46" x2="502.39" y2="269.46"/><line class="af" x1="494.83" y1="254.46" x2="494.83" y2="269.46"/><line class="ag" x1="487.28" y1="254.46" x2="487.28" y2="269.46"/><line class="ah" x1="479.72" y1="254.46" x2="479.72" y2="269.46"/><line class="ai" x1="472.17" y1="254.46" x2="472.17" y2="269.46"/><line class="aj" x1="464.61" y1="254.46" x2="464.61" y2="269.46"/><line class="ak" x1="457.06" y1="254.46" x2="457.06" y2="269.46"/></g><polygon class="z" points="515.5 282.8 451.5 282.8 449.5 281.09 517.5 281.09 515.5 282.8"/><polygon class="al" points="451.5 268.38 515.5 268.38 517.5 270.09 449.5 270.09 451.5 268.38"/><rect class="ck" x="449.5" y="270.09" width="68" height="11.02"/><g class="cl"><line class="ad" x1="509.95" y1="268.88" x2="509.95" y2="283.88"/><line class="ae" x1="502.39" y1="268.88" x2="502.39" y2="283.88"/><line class="af" x1="494.83" y1="268.88" x2="494.83" y2="283.88"/><line class="ag" x1="487.28" y1="268.88" x2="487.28" y2="283.88"/><line class="ah" x1="479.72" y1="268.88" x2="479.72" y2="283.88"/><line class="ai" x1="472.17" y1="268.88" x2="472.17" y2="283.88"/><line class="aj" x1="464.61" y1="268.88" x2="464.61" y2="283.88"/><line class="ak" x1="457.06" y1="268.88" x2="457.06" y2="283.88"/></g><polygon class="z" points="515.5 297.22 451.5 297.22 449.5 295.51 517.5 295.51 515.5 297.22"/><polygon class="al" points="451.5 282.8 515.5 282.8 517.5 284.51 449.5 284.51 451.5 282.8"/><rect class="cm" x="449.5" y="284.51" width="68" height="11.02"/><g class="cn"><line class="ad" x1="509.95" y1="283.31" x2="509.95" y2="298.31"/><line class="ae" x1="502.39" y1="283.31" x2="502.39" y2="298.31"/><line class="af" x1="494.83" y1="283.31" x2="494.83" y2="298.31"/><line class="ag" x1="487.28" y1="283.31" x2="487.28" y2="298.31"/><line class="ah" x1="479.72" y1="283.31" x2="479.72" y2="298.31"/><line class="ai" x1="472.17" y1="283.31" x2="472.17" y2="298.31"/><line class="aj" x1="464.61" y1="283.31" x2="464.61" y2="298.31"/><line class="ak" x1="457.06" y1="283.31" x2="457.06" y2="298.31"/></g><polygon class="z" points="515.5 311.64 451.5 311.64 449.5 309.93 517.5 309.93 515.5 311.64"/><polygon class="al" points="451.5 297.22 515.5 297.22 517.5 298.93 449.5 298.93 451.5 297.22"/><rect class="co" x="449.5" y="298.93" width="68" height="11.02"/><g class="cp"><line class="ad" x1="509.95" y1="297.73" x2="509.95" y2="312.73"/><line class="ae" x1="502.39" y1="297.73" x2="502.39" y2="312.73"/><line class="af" x1="494.83" y1="297.73" x2="494.83" y2="312.73"/><line class="ag" x1="487.28" y1="297.73" x2="487.28" y2="312.73"/><line class="ah" x1="479.72" y1="297.73" x2="479.72" y2="312.73"/><line class="ai" x1="472.17" y1="297.73" x2="472.17" y2="312.73"/><line class="aj" x1="464.61" y1="297.73" x2="464.61" y2="312.73"/><line class="ak" x1="457.06" y1="297.73" x2="457.06" y2="312.73"/></g><polygon class="o" points="210.91 297.22 146.91 297.22 144.91 295.51 212.91 295.51 210.91 297.22"/><polygon class="o" points="146.91 282.8 210.91 282.8 212.91 284.51 144.91 284.51 146.91 282.8"/><rect class="p" x="144.91" y="284.51" width="68" height="11.02"/><g class="cq"><line class="r" x1="205.36" y1="283.31" x2="205.36" y2="298.31"/><line class="s" x1="197.8" y1="283.31" x2="197.8" y2="298.31"/><line class="t" x1="190.25" y1="283.31" x2="190.25" y2="298.31"/><line class="u" x1="182.69" y1="283.31" x2="182.69" y2="298.31"/><line class="v" x1="175.13" y1="283.31" x2="175.13" y2="298.31"/><line class="w" x1="167.58" y1="283.31" x2="167.58" y2="298.31"/><line class="x" x1="160.02" y1="283.31" x2="160.02" y2="298.31"/><line class="y" x1="152.47" y1="283.31" x2="152.47" y2="298.31"/></g><polygon class="o" points="210.91 282.8 146.91 282.8 144.91 281.09 212.91 281.09 210.91 282.8"/><polygon class="o" points="146.91 268.38 210.91 268.38 212.91 270.09 144.91 270.09 146.91 268.38"/><rect class="p" x="144.91" y="270.09" width="68" height="11.02"/><g class="cr"><line class="r" x1="205.36" y1="268.88" x2="205.36" y2="283.88"/><line class="s" x1="197.8" y1="268.88" x2="197.8" y2="283.88"/><line class="t" x1="190.25" y1="268.88" x2="190.25" y2="283.88"/><line class="u" x1="182.69" y1="268.88" x2="182.69" y2="283.88"/><line class="v" x1="175.13" y1="268.88" x2="175.13" y2="283.88"/><line class="w" x1="167.58" y1="268.88" x2="167.58" y2="283.88"/><line class="x" x1="160.02" y1="268.88" x2="160.02" y2="283.88"/><line class="y" x1="152.47" y1="268.88" x2="152.47" y2="283.88"/></g><polygon class="o" points="210.91 268.38 146.91 268.38 144.91 266.67 212.91 266.67 210.91 268.38"/><polygon class="o" points="146.91 253.96 210.91 253.96 212.91 255.67 144.91 255.67 146.91 253.96"/><rect class="p" x="144.91" y="255.67" width="68" height="11.02"/><g class="cs"><line class="r" x1="205.36" y1="254.46" x2="205.36" y2="269.46"/><line class="s" x1="197.8" y1="254.46" x2="197.8" y2="269.46"/><line class="t" x1="190.25" y1="254.46" x2="190.25" y2="269.46"/><line class="u" x1="182.69" y1="254.46" x2="182.69" y2="269.46"/><line class="v" x1="175.13" y1="254.46" x2="175.13" y2="269.46"/><line class="w" x1="167.58" y1="254.46" x2="167.58" y2="269.46"/><line class="x" x1="160.02" y1="254.46" x2="160.02" y2="269.46"/><line class="y" x1="152.47" y1="254.46" x2="152.47" y2="269.46"/></g><polygon class="o" points="210.91 253.96 146.91 253.96 144.91 252.25 212.91 252.25 210.91 253.96"/><polygon class="o" points="146.91 239.54 210.91 239.54 212.91 241.25 144.91 241.25 146.91 239.54"/><rect class="p" x="144.91" y="241.25" width="68" height="11.02"/><g class="ct"><line class="r" x1="205.36" y1="240.04" x2="205.36" y2="255.04"/><line class="s" x1="197.8" y1="240.04" x2="197.8" y2="255.04"/><line class="t" x1="190.25" y1="240.04" x2="190.25" y2="255.04"/><line class="u" x1="182.69" y1="240.04" x2="182.69" y2="255.04"/><line class="v" x1="175.13" y1="240.04" x2="175.13" y2="255.04"/><line class="w" x1="167.58" y1="240.04" x2="167.58" y2="255.04"/><line class="x" x1="160.02" y1="240.04" x2="160.02" y2="255.04"/><line class="y" x1="152.47" y1="240.04" x2="152.47" y2="255.04"/></g><polygon class="o" points="210.91 239.54 146.91 239.54 144.91 237.83 212.91 237.83 210.91 239.54"/><polygon class="o" points="146.91 225.12 210.91 225.12 212.91 226.83 144.91 226.83 146.91 225.12"/><rect class="p" x="144.91" y="226.83" width="68" height="11.02"/><g class="cu"><line class="r" x1="205.36" y1="225.62" x2="205.36" y2="240.62"/><line class="s" x1="197.8" y1="225.62" x2="197.8" y2="240.62"/><line class="t" x1="190.25" y1="225.62" x2="190.25" y2="240.62"/><line class="u" x1="182.69" y1="225.62" x2="182.69" y2="240.62"/><line class="v" x1="175.13" y1="225.62" x2="175.13" y2="240.62"/><line class="w" x1="167.58" y1="225.62" x2="167.58" y2="240.62"/><line class="x" x1="160.02" y1="225.62" x2="160.02" y2="240.62"/><line class="y" x1="152.47" y1="225.62" x2="152.47" y2="240.62"/></g><polygon class="o" points="207.91 225.13 143.91 225.13 141.91 223.42 209.91 223.42 207.91 225.13"/><polygon class="o" points="143.91 210.71 207.91 210.71 209.91 212.42 141.91 212.42 143.91 210.71"/><rect class="p" x="141.91" y="212.42" width="68" height="11.02"/><g class="cv"><line class="r" x1="202.36" y1="211.21" x2="202.36" y2="226.21"/><line class="s" x1="194.8" y1="211.21" x2="194.8" y2="226.21"/><line class="t" x1="187.25" y1="211.21" x2="187.25" y2="226.21"/><line class="u" x1="179.69" y1="211.21" x2="179.69" y2="226.21"/><line class="v" x1="172.13" y1="211.21" x2="172.13" y2="226.21"/><line class="w" x1="164.58" y1="211.21" x2="164.58" y2="226.21"/><line class="x" x1="157.02" y1="211.21" x2="157.02" y2="226.21"/><line class="y" x1="149.47" y1="211.21" x2="149.47" y2="226.21"/></g><polygon class="o" points="210.91 210.71 146.91 210.71 144.91 209 212.91 209 210.91 210.71"/><polygon class="o" points="146.91 196.28 210.91 196.28 212.91 198 144.91 198 146.91 196.28"/><rect class="p" x="144.91" y="198" width="68" height="11.02"/><g class="cw"><line class="r" x1="205.36" y1="196.79" x2="205.36" y2="211.79"/><line class="s" x1="197.8" y1="196.79" x2="197.8" y2="211.79"/><line class="t" x1="190.25" y1="196.79" x2="190.25" y2="211.79"/><line class="u" x1="182.69" y1="196.79" x2="182.69" y2="211.79"/><line class="v" x1="175.13" y1="196.79" x2="175.13" y2="211.79"/><line class="w" x1="167.58" y1="196.79" x2="167.58" y2="211.79"/><line class="x" x1="160.02" y1="196.79" x2="160.02" y2="211.79"/><line class="y" x1="152.47" y1="196.79" x2="152.47" y2="211.79"/></g><polygon class="o" points="214.96 196.38 150.96 196.38 148.96 194.67 216.96 194.67 214.96 196.38"/><polygon class="o" points="150.96 181.96 214.96 181.96 216.96 183.67 148.96 183.67 150.96 181.96"/><rect class="p" x="148.95" y="183.67" width="68" height="11.02"/><g class="cx"><line class="r" x1="209.4" y1="182.46" x2="209.4" y2="197.46"/><line class="s" x1="201.84" y1="182.46" x2="201.84" y2="197.46"/><line class="t" x1="194.29" y1="182.46" x2="194.29" y2="197.46"/><line class="u" x1="186.73" y1="182.46" x2="186.73" y2="197.46"/><line class="v" x1="179.18" y1="182.46" x2="179.18" y2="197.46"/><line class="w" x1="171.62" y1="182.46" x2="171.62" y2="197.46"/><line class="x" x1="164.07" y1="182.46" x2="164.07" y2="197.46"/><line class="y" x1="156.51" y1="182.46" x2="156.51" y2="197.46"/></g><polygon class="o" points="210.91 181.96 146.91 181.96 144.91 180.25 212.91 180.25 210.91 181.96"/><polygon class="o" points="146.91 167.54 210.91 167.54 212.91 169.25 144.91 169.25 146.91 167.54"/><rect class="p" x="144.91" y="169.25" width="68" height="11.02"/><g class="cy"><line class="r" x1="205.36" y1="168.04" x2="205.36" y2="183.04"/><line class="s" x1="197.8" y1="168.04" x2="197.8" y2="183.04"/><line class="t" x1="190.25" y1="168.04" x2="190.25" y2="183.04"/><line class="u" x1="182.69" y1="168.04" x2="182.69" y2="183.04"/><line class="v" x1="175.13" y1="168.04" x2="175.13" y2="183.04"/><line class="w" x1="167.58" y1="168.04" x2="167.58" y2="183.04"/><line class="x" x1="160.02" y1="168.04" x2="160.02" y2="183.04"/><line class="y" x1="152.47" y1="168.04" x2="152.47" y2="183.04"/></g><polygon class="o" points="210.91 167.54 146.91 167.54 144.91 165.83 212.91 165.83 210.91 167.54"/><polygon class="bd" points="146.91 153.12 210.91 153.12 212.91 154.83 144.91 154.83 146.91 153.12"/><rect class="p" x="144.91" y="154.83" width="68" height="11.02"/><g class="cz"><line class="r" x1="205.36" y1="153.62" x2="205.36" y2="168.62"/><line class="s" x1="197.8" y1="153.62" x2="197.8" y2="168.62"/><line class="t" x1="190.25" y1="153.62" x2="190.25" y2="168.62"/><line class="u" x1="182.69" y1="153.62" x2="182.69" y2="168.62"/><line class="v" x1="175.13" y1="153.62" x2="175.13" y2="168.62"/><line class="w" x1="167.58" y1="153.62" x2="167.58" y2="168.62"/><line class="x" x1="160.02" y1="153.62" x2="160.02" y2="168.62"/><line class="y" x1="152.47" y1="153.62" x2="152.47" y2="168.62"/></g></svg>